<svg id="Layer_1" data-name="Layer 1" xmlns="http://www.w3.org/2000/svg" viewBox="0 0 100.52 116.8"><title>arrow-17</title><path d="M1366.64,316.7c-3-.51-5.81,0-8.67.37-6.93.82-13.27,3.4-19.49,6.38a8.09,8.09,0,0,0-1.59,1,1.68,1.68,0,0,0-.37.82,0.68,0.68,0,0,0,.38.25c1.24,0.28,2.49.56,3.74,0.79,2.2,0.4,4.41.73,6.61,1.15a13,13,0,0,1,2.28.71,1.73,1.73,0,0,1,1.16,2.26,1.79,1.79,0,0,1-2,1,168.13,168.13,0,0,0-18.45-2.87,2.16,2.16,0,0,1-1.93-2.76,123.51,123.51,0,0,1,4-15.28,10,10,0,0,1,1.36-2.49,1.86,1.86,0,0,1,1.29-.42,1.59,1.59,0,0,1,1.21,1.32,16.72,16.72,0,0,1-.42,2.33c-0.81,2.92-1.68,5.83-2.49,8.75a1,1,0,0,0,.25.84,0.91,0.91,0,0,0,.84,0,83.23,83.23,0,0,1,10.36-5,50.83,50.83,0,0,1,18.17-3.87,63,63,0,0,1,15.25,1.4,69.39,69.39,0,0,1,15.71,5.78c8.84,4.2,16,10.54,22.18,18a46.36,46.36,0,0,1,5.22,8c1.35,2.54,2.56,5.15,3.81,7.74,1.69,3.51,2.15,7.36,2.79,11.12a49.61,49.61,0,0,1-.76,21.88c-1.87,6.63-4.6,13-9,18.39a71,71,0,0,1-9.71,9.25,46.44,46.44,0,0,1-22.08,9.88,67.25,67.25,0,0,1-26.64-.9c-11.27-2.51-20.73-8.16-29.23-15.7a18.56,18.56,0,0,1-1.93-2.11,1.68,1.68,0,0,1,.21-2.18,2,2,0,0,1,2.21-.4c0.66,0.44,1.28.94,1.91,1.43,2.77,2.17,5.48,4.41,8.3,6.5a46.64,46.64,0,0,0,15.9,7.61,78.13,78.13,0,0,0,12.19,2.53c10.88,1.11,21.39-.25,31.14-5.54a31.34,31.34,0,0,0,5.14-3.5c2.94-2.46,5.82-5,8.57-7.67a28,28,0,0,0,5.46-8.4c0.61-1.3,1.06-2.68,1.7-4,3.55-7.14,4-14.75,3.29-22.47a94.69,94.69,0,0,0-1.75-9.91,15.45,15.45,0,0,0-1.2-3.63c-1.53-3.17-3.1-6.31-4.78-9.4-2.31-4.26-5.61-7.73-9-11.19-7.92-8.17-17.78-12.91-28.46-16.14C1375.21,317.2,1370.85,317,1366.64,316.7Z" transform="translate(-1328.17 -307.61)"/></svg>