<svg id="Layer_1" data-name="Layer 1" xmlns="http://www.w3.org/2000/svg" viewBox="0 0 77.98 114.2"><title>arrow-23</title><path d="M127.88,568.68a137.92,137.92,0,0,0-.57,16.14c0,4.15-.15,8.31-0.33,12.46a57.47,57.47,0,0,1-1.72,12.33A26.61,26.61,0,0,1,115,624.77a19.5,19.5,0,0,1-8.3,3.54,60.36,60.36,0,0,1-10,1c-8.64,0-17.27.07-25.91,0.07-2.08,0-4.15-.12-6.22-0.29a2.08,2.08,0,0,1-1.67-2.87c0.76-2.22,2-3.16,4.22-3.15,2.08,0,4.16.18,6.23,0.17,8.8,0,17.59-.1,26.39-0.11a38.3,38.3,0,0,0,8.08-.95,15.59,15.59,0,0,0,12.07-10.52,42.25,42.25,0,0,0,2.18-13.2c0.2-6.87.27-13.75,0.57-20.62,0.17-4,0-8-.16-12-0.21-6.39-.21-12.79-0.27-19.19a37.38,37.38,0,0,0-1-8.55,2,2,0,0,0-2-1.72c-2.07,0-4.15.08-6.22,0.15-0.79,0-1.58.14-2.38,0.18a1.58,1.58,0,0,1-1.23-1.27,11.14,11.14,0,0,1,.6-2.78,41.53,41.53,0,0,1,2.49-4.64,69.64,69.64,0,0,1,7.72-10.38c3-3.26,5.05-3.29,8-.2,0.77,0.8,1.45,1.7,2.14,2.58a101.4,101.4,0,0,0,8.12,9.46,13.42,13.42,0,0,1,1.81,2.22,2.82,2.82,0,0,1-1.93,4.4,32.57,32.57,0,0,1-3.82.18c-1.92,0-3.83,0-5.75.12a1.66,1.66,0,0,0-1.63,1.95c0.08,1.76.17,3.52,0.35,5.26C128.3,551.9,128,560.21,127.88,568.68Z" transform="translate(-62.72 -515.14)"/></svg>