<svg id="Layer_1" data-name="Layer 1" xmlns="http://www.w3.org/2000/svg" viewBox="0 0 155.74 33.55"><title>arrow-21</title><path d="M885.29,489.07c-5.75,0-11.51,0-17.26,0-3.36,0-6.71-.1-10.07-0.12-9,0-17.9-.08-26.85-0.06-4.48,0-4.66.26-4.12,4.65,0.19,1.59.48,3.16,0.66,4.75a4.42,4.42,0,0,1-.16,1.88,1.54,1.54,0,0,1-1,.87,1.62,1.62,0,0,1-1.19-.55,3,3,0,0,1-.55-1.29c-0.53-2.17-1.06-4.35-1.51-6.54a16.59,16.59,0,0,1,0-5.25c0.28-2.38.45-4.77,0.73-7.14s0.62-4.75,1-7.12a1.42,1.42,0,0,1,.4-0.84,2,2,0,0,1,1.2-.6,1.44,1.44,0,0,1,1,.84,10.25,10.25,0,0,1,.29,2.82c-0.1,2.39-.34,4.78-0.47,7.18-0.1,1.86.37,2.46,2,2.48,5.59,0.08,11.18.18,16.77,0.14,5.75,0,11.51-.32,17.25.33a14.55,14.55,0,0,0,3.35,0c6.54-.79,13.09-0.47,19.64-0.31a140.41,140.41,0,0,0,14.86-.11c1-.08,1.92-0.08,2.88-0.08,7.19,0,14.38.13,21.57,0.14,5.27,0,10.55-.07,15.82-0.14a1.79,1.79,0,0,0,2-2.07c0-1.6,0-3.19-.11-4.79a21,21,0,0,1,.61-6.65,1.66,1.66,0,0,1,1.55-.89,12.32,12.32,0,0,1,1.8.6c5.53,2.51,11,5,16.56,7.56,4.07,1.85,8.15,3.68,12.22,5.54a16.19,16.19,0,0,1,2.06,1.18,1.57,1.57,0,0,1,.15,2.15,9.64,9.64,0,0,1-1.55,1.09c-4.54,2.34-9.09,4.68-13.66,7-5.15,2.56-10.33,5.06-15.5,7.57a19.6,19.6,0,0,1-2.22.86,1.48,1.48,0,0,1-1.5-.94,35.43,35.43,0,0,1-.35-3.79c-0.05-3,0-6.07-.05-9.1a1.24,1.24,0,0,0-1.2-1.25c-1.27-.1-2.55-0.19-3.83-0.19-7.67,0-15.34.09-23,.1q-15.1,0-30.21,0v0.08Zm61.55-2h0c0,1.91,0,3.82,0,5.73s0.16,3.8.26,5.7a0.93,0.93,0,0,0,1.1.59,11.4,11.4,0,0,0,1.33-.49q10.71-5.25,21.41-10.53a3.82,3.82,0,0,0,1.13-.84,0.83,0.83,0,0,0,.06-0.8,3.61,3.61,0,0,0-1.15-.82q-9.32-4.28-18.66-8.53c-1.3-.59-2.63-1.12-4-1.64a1.07,1.07,0,0,0-1.56,1.13C946.83,480.09,946.84,483.59,946.84,487.1Z" transform="translate(-823 -470.62)"/></svg>