<svg id="Layer_1" data-name="Layer 1" xmlns="http://www.w3.org/2000/svg" viewBox="0 0 183.68 37.79"><title>arrow-41</title><path d="M606,961.17q-18.46,0-36.93,0c-6.55,0-13.11-.06-19.66-0.08-1.28,0-2.56.06-3.83,0.1a3.58,3.58,0,0,0-2.54,1.15c-1.89,2-3.8,3.89-5.7,5.83-3,3.09-6,6.19-9,9.27a18.06,18.06,0,0,1-1.81,1.56,1.93,1.93,0,0,1-2.23-.11,2.06,2.06,0,0,1-.61-2.57,18,18,0,0,1,1.81-2.21c3.34-3.45,6.7-6.86,10-10.3a17.42,17.42,0,0,0,1.22-1.45,0.48,0.48,0,0,0,.06-0.44,1.55,1.55,0,0,0-.61-0.57,2.85,2.85,0,0,0-.95-0.08c-4.91-.07-4-0.45-7.58,2.92q-5.78,5.41-11.58,10.79a29.8,29.8,0,0,1-3,2.39,2,2,0,0,1-2.58-.57,1.93,1.93,0,0,1-.08-2.24,32.18,32.18,0,0,1,2.29-2.43c3.37-3.19,6.77-6.34,10.13-9.53a1.08,1.08,0,0,0,.3-0.83,0.88,0.88,0,0,0-.66-0.45c-0.79-.09-1.6-0.08-2.39-0.13a4.37,4.37,0,0,0-3.47,1.3c-2.19,2.1-4.44,4.15-6.67,6.21q-3.87,3.58-7.76,7.15a21.06,21.06,0,0,1-1.86,1.5,2.26,2.26,0,0,1-2.26-.18,2.09,2.09,0,0,1-.46-2.61,21.67,21.67,0,0,1,2.23-2.48c2.9-2.75,5.89-5.41,8.76-8.19,1.45-1.4,3.41-2.39,4-4.54-0.9-1.8-2.7-2.67-4.14-3.89-2.92-2.49-5.94-4.86-8.89-7.32a15.53,15.53,0,0,1-2-2.06,2.08,2.08,0,0,1,.29-2.23,1.85,1.85,0,0,1,2.15-.58,26.54,26.54,0,0,1,2.76,1.88c4,3.22,8,6.35,11.85,9.75a8.55,8.55,0,0,0,7.48,2.14,0.56,0.56,0,0,0,.37-0.2,1.42,1.42,0,0,0-.12-0.89q-2.91-2.85-5.89-5.62c-1.52-1.42-3.11-2.76-4.62-4.19a9.26,9.26,0,0,1-1.51-1.83,1.62,1.62,0,0,1,.11-1.8,2.07,2.07,0,0,1,2-.92,7.54,7.54,0,0,1,2.05,1.15c3.35,3,6.65,6,10,9,1.54,1.4,3.06,2.81,4.59,4.22a3.29,3.29,0,0,0,2.55,1.12c1.16-.13,2.46.61,3.47-0.53-0.24-1.24-1.36-1.71-2.17-2.41-2.43-2.08-4.92-4.09-7.37-6.15a18.8,18.8,0,0,1-1.71-1.66,1.93,1.93,0,0,1-.06-2.24,2,2,0,0,1,2.49-.82,32.21,32.21,0,0,1,3.12,2.21c3.34,2.73,6.65,5.51,10,8.26,0.86,0.71,1.74,1.41,2.58,2.14a5.08,5.08,0,0,0,3.52,1.21c5.12,0,10.23.1,15.35,0.09,9.11,0,18.23-.12,27.34-0.12,4.64,0,9.27.17,13.91,0.21,12.47,0.12,24.94-.38,37.41,0,7.34,0.19,14.7-.09,22.05-0.16a1.18,1.18,0,0,0,.39-0.16,2.24,2.24,0,0,0-.46-0.74,9.15,9.15,0,0,0-1.28-.63c-5.47-2.62-11-5.23-16.41-7.89a26.91,26.91,0,0,1-3.25-2,1.81,1.81,0,0,1-.64-2.12,1.93,1.93,0,0,1,2.35-1.11c0.73,0.31,1.44.69,2.15,1,6.69,3.4,13.38,6.83,20.38,9.59a74,74,0,0,0,13.29,4,8.41,8.41,0,0,1,1.84.48,1.73,1.73,0,0,1,1,1.49,1.71,1.71,0,0,1-.77,1.65,18.25,18.25,0,0,1-2.56,1.28c-3.52,1.51-7.08,2.95-10.58,4.51a132.93,132.93,0,0,0-20.31,10.77,8.14,8.14,0,0,1-2.15,1,1.6,1.6,0,0,1-1.66-.72,1.44,1.44,0,0,1-.23-1.77,7.21,7.21,0,0,1,1.63-1.7,99,99,0,0,1,13.72-7.84c2.86-1.42,5.76-2.76,8.64-4.15a0.57,0.57,0,0,0,.23-0.36c0.07-.32-0.12-0.51-0.54-0.55-0.16,0-.32,0-0.48,0-0.48,0-1,0-1.44,0-12.15.22-24.29,0.2-36.44,0-7.35-.11-14.71.16-22.06,0.26v-0.22Z" transform="translate(-497.36 -941.53)"/></svg>