<svg id="Layer_1" data-name="Layer 1" xmlns="http://www.w3.org/2000/svg" viewBox="0 0 134.83 85.92"><title>arrow-13</title><path d="M657.52,361.12q-0.19-12.23-.39-24.47a24.35,24.35,0,0,1,.7-7.14A16,16,0,0,1,659,326.4a6.06,6.06,0,0,1,5-3.32,32.58,32.58,0,0,1,9.07.5c5.19,0.91,10.38,1.86,15.59,2.69,3.47,0.55,7,.93,10.46,1.37,11.42,1.44,22.84,2.85,34.25,4.33,2.85,0.37,5.67,1,8.51,1.42,0.79,0.13,1.58.23,2.38,0.3,1.23,0.11,1.88-.37,1.91-1.54,0.09-2.88.1-5.76,0.14-8.63,0-1.12-.05-2.24.05-3.35a3.28,3.28,0,0,1,2.22-2.86,2.24,2.24,0,0,1,2.28.19,26.94,26.94,0,0,1,2.46,2.28q9.88,9.8,19.75,19.62c5.46,5.4,11,10.76,16.42,16.15a24.94,24.94,0,0,1,2,2.08,2.22,2.22,0,0,1,.29,2.28,10.17,10.17,0,0,1-1.18,2.07,31.33,31.33,0,0,1-5.29,5.54c-4,3.42-7.62,7.29-11.31,11.07-7.48,7.67-15.14,15.17-22.75,22.72-0.89.89-1.8,2.06-3.25,1.59-1.78-.58-1.51-2.22-1.53-3.63,0-3.68-.07-7.35-0.13-11a1.37,1.37,0,0,0-1.6-1.34c-6.16,1-12.38,1.36-18.53,2.43-5.51,1-11.08,1.54-16.64,2.21-8.89,1.07-17.79,2-26.67,3.12-5.08.63-10.12,1.47-15.19,2.18a27.87,27.87,0,0,1-4.28.39,5.22,5.22,0,0,1-5.42-4.48,21.65,21.65,0,0,1-.52-5.72C658.15,378.38,657.33,369.75,657.52,361.12Zm3.72-.74c0.12,8.47.24,17.59,0.37,26.7,0,0.64,0,1.28.09,1.92,0.23,2.37,1.34,3.4,3.78,3.33,1.43,0,2.86-.26,4.29-0.43,4.28-.51,8.57-1,12.85-1.55,4.12-.52,8.25-1,12.36-1.61,4.58-.67,9.14-1.59,13.73-2.17,8.4-1.07,16.83-2,25.24-2.94a109.31,109.31,0,0,0,11.37-1.69c3.58-.81,5,0.42,5.05,4.23,0.08,2.88.15,5.75,0.26,8.63a1,1,0,0,0,.5.69,1,1,0,0,0,.86-0.13c1.65-1.51,3.26-3.06,4.89-4.6,9-8.6,17.32-17.95,26.35-26.56,4.4-4.19,4.08-3.41-.2-7.57-4.93-4.79-9.9-9.54-14.77-14.4-5.21-5.19-10.32-10.48-15.5-15.72a7,7,0,0,0-1.51-1.13,0.86,0.86,0,0,0-.69.35c-0.09,1.59-.14,3.18-0.16,4.78s0,3.2,0,4.79a5.14,5.14,0,0,1-1.13,3.1,2.69,2.69,0,0,1-2.48,1.16,18.46,18.46,0,0,1-1.87-.4c-7-1.44-14.13-2.66-21.3-3.4-6.2-.64-12.41-1.25-18.58-2.09-9.34-1.27-18.66-2.73-28-4.12-3.32-.5-6.62-1.06-9.94-1.54a9.73,9.73,0,0,0-4.28.25,1.74,1.74,0,0,0-1.24,1.32,10.41,10.41,0,0,0-.32,2.36c0,2.72.17,5.43,0.25,8.15a49.24,49.24,0,0,1,.12,6.22C661.2,350.79,661.25,355.26,661.23,360.38Z" transform="translate(-657.11 -317.07)"/></svg>