<svg id="Layer_1" data-name="Layer 1" xmlns="http://www.w3.org/2000/svg" viewBox="0 0 144.19 35.75"><title>arrow-2</title><path d="M404.31,80.92c-10.76.3-22.26,0.63-33.75,0.93-7.35.19-14.69,0.32-22,.5a0.46,0.46,0,0,0-.22.74c0.64,0.48,1.28.94,1.95,1.37,3.62,2.34,7.27,4.65,10.88,7a6.38,6.38,0,0,1,2.71,2.62,1.87,1.87,0,0,1-.05,1.35,1.4,1.4,0,0,1-1.55.86,5.79,5.79,0,0,1-1.76-.66c-2.77-1.6-5.48-3.29-8.27-4.84-4.19-2.33-8.37-4.67-12.66-6.8-3.23-1.61-3.17-4.52-.66-6.4,4.34-3.26,8.62-6.6,13-9.75,2.86-2,5.91-3.8,8.91-5.62a14.06,14.06,0,0,1,3.07-1.29,1.47,1.47,0,0,1,1.59.82,1.33,1.33,0,0,1-.13,1.76,19.18,19.18,0,0,1-2.26,1.74L348.77,75.67a7,7,0,0,0-1.08.95,1.19,1.19,0,0,0-.36.79,1,1,0,0,0,.63.49,3,3,0,0,0,1,.06c1,0,1.92,0,2.87-.1,14.52-1,29.06-.8,43.59-1.13,4.95-.11,9.91-0.61,14.84-0.44,7.34,0.25,14.69-.44,22,0.31a2.9,2.9,0,0,0,.48,0c8.47-.54,16.9.49,25.36,0.57a55,55,0,0,1,6.18.67,7,7,0,0,1,1.37.39,2,2,0,0,1,1.24,1.85,1.85,1.85,0,0,1-2,1.65c-5.07-.85-10.19-0.65-15.29-0.78q-15.09-.38-30.19-0.08C414.64,81,409.84,80.92,404.31,80.92Z" transform="translate(-322.7 -60.88)"/><path d="M342.91,64.26A1.47,1.47,0,0,1,344.2,66a4.84,4.84,0,0,1-.88,1.65c-1.34,1.36-2.74,2.67-4.18,3.93-3.12,2.73-6.29,5.41-9.43,8.12-0.36.31-.7,0.65-1,1a1,1,0,0,0,.14,1.63c2.75,2.17,5.51,4.33,8.31,6.44,1.78,1.35,3.66,2.57,5.43,3.92a6.56,6.56,0,0,1,1.53,1.79,1.35,1.35,0,0,1-.32,1.73,1.87,1.87,0,0,1-1.27.47,4.65,4.65,0,0,1-1.78-.62,123,123,0,0,1-13.14-8.73,29.7,29.7,0,0,1-3.83-3.59,3.26,3.26,0,0,1,0-4.74,20.1,20.1,0,0,1,2.43-2.29c4.86-3.88,9.76-7.72,14.63-11.58A2.86,2.86,0,0,1,342.91,64.26Z" transform="translate(-322.7 -60.88)"/></svg>