<svg id="Layer_1" data-name="Layer 1" xmlns="http://www.w3.org/2000/svg" viewBox="0 0 143.76 27.74"><title>arrow-45</title><path d="M1428.61,954.51c-0.09-2.74-.22-5.29-0.25-7.84a42.78,42.78,0,0,1,.2-4.76,2.29,2.29,0,0,1,3.29-1.67l0.42,0.23c5.18,3.12,10.18,6.53,15.06,10.1,1.67,1.22,3.33,2.44,5,3.7a1.51,1.51,0,0,1-.09,2.12c-0.66.43-1.36,0.81-2.06,1.18q-5.49,2.9-11,5.78c-2.68,1.4-5.36,2.8-8.07,4.15-1.37.68-2.48-.08-2.5-1.71,0-2.07,0-4.14,0-6.21C1428.62,957.82,1428.61,956.07,1428.61,954.51Zm2.9-.82h0.27c0,2.4,0,4.8,0,7.2a4,4,0,0,0,.25,1.4,0.91,0.91,0,0,0,.69.48,3.3,3.3,0,0,0,1.37-.33c1.57-.79,3.11-1.63,4.66-2.46l7.17-3.89c1.43-.78,1.43-1.27,0-2.36-0.38-.29-0.76-0.59-1.15-0.86l-10-6.64c-0.4-.27-0.82-0.5-1.23-0.75-0.14-.08-0.26-0.19-0.4-0.27a1,1,0,0,0-1.67.81C1431.5,948.58,1431.51,951.13,1431.51,953.69Z" transform="translate(-1308.93 -940.01)"/><path d="M1347.56,956.32c-2.24,0-4.48,0-6.72,0a12.09,12.09,0,0,1-1.9-.21,1.75,1.75,0,0,1-1.25-1.8,1.63,1.63,0,0,1,1.23-1.31,9.8,9.8,0,0,1,2.36-.37c4.16-.06,8.31-0.09,12.47-0.07a9.74,9.74,0,0,1,2.81.45,1.52,1.52,0,0,1,1,1.45,1.56,1.56,0,0,1-1,1.48,4.89,4.89,0,0,1-1.85.35c-2.4,0-4.8,0-7.19,0h0Z" transform="translate(-1308.93 -940.01)"/><path d="M1376.73,956.38c-2.07,0-4.15,0-6.22,0a16.3,16.3,0,0,1-2.37-.26,2,2,0,0,1-1.56-1.59,1.83,1.83,0,0,1,1.83-1.81q7.42-.1,14.84-0.12a3.84,3.84,0,0,1,2.69.83,1.7,1.7,0,0,1,.5,1.24,1.61,1.61,0,0,1-.72,1.11,4.11,4.11,0,0,1-1.8.46c-2.39,0-4.79,0-7.18,0v0.14Z" transform="translate(-1308.93 -940.01)"/><path d="M1404.95,956.22c-2.06,0-4.13,0-6.19,0a9.86,9.86,0,0,1-1.89-.13,1.51,1.51,0,0,1-.4-2.86,7.29,7.29,0,0,1,3.71-.66c2.7,0.05,5.4.19,8.1,0.28,1.59,0.05,3.18,0,4.76.14a5.09,5.09,0,0,1,1.78.56,1,1,0,0,1,.44.78,1.77,1.77,0,0,1-.46,1.24,5.23,5.23,0,0,1-2.23.68c-2.54.08-5.08,0-7.62,0v0Z" transform="translate(-1308.93 -940.01)"/><path d="M1318.53,956.27c-2.24,0-4.47,0-6.71,0a11.83,11.83,0,0,1-1.89-.25,1.58,1.58,0,0,1-1-1.45,1.44,1.44,0,0,1,1.23-1.27,13,13,0,0,1,2.37-.31c2.23-.08,4.46-0.12,6.69-0.16,1.91,0,3.82-.05,5.73-0.06a4.45,4.45,0,0,1,2.76.59,2.51,2.51,0,0,1,.75,1.13,1.65,1.65,0,0,1-.88,1.55,9.87,9.87,0,0,1-1.87.3c-2.4,0-4.79,0-7.19,0v-0.06Z" transform="translate(-1308.93 -940.01)"/></svg>