<svg id="Layer_1" data-name="Layer 1" xmlns="http://www.w3.org/2000/svg" viewBox="0 0 68.08 130.49"><title>arrow-14</title><path d="M934.91,328.47a9.38,9.38,0,0,1-2,5.26,17.61,17.61,0,0,1-5.87,4.86,49.8,49.8,0,0,1-6.56,2.91c-4.08,1.39-8.23,2.59-12.36,3.81q-6.43,1.9-12.9,3.69a62.2,62.2,0,0,0-15.23,6.93,20.86,20.86,0,0,0-9.25,12.4,6.72,6.72,0,0,0,1.27,6.3,17.85,17.85,0,0,0,4.68,4.07,60.5,60.5,0,0,0,16.12,7.24c2.6,0.77,5.26,1.36,7.9,2a0.94,0.94,0,0,0,.82-0.26,1.45,1.45,0,0,0-.11-0.87,1.31,1.31,0,0,0-.23-0.42c-3.43-4.84-5.85-10.27-8.76-15.41a16.1,16.1,0,0,1-1.26-3.09,1.35,1.35,0,0,1,.75-1.59,1.44,1.44,0,0,1,1.77.15,5.91,5.91,0,0,1,1.14,1.51c1.84,3.37,3.66,6.74,5.45,10.14a36.71,36.71,0,0,0,7.93,10.75,3.59,3.59,0,0,1,.66.69,2.23,2.23,0,0,1,.21,2.27,3.73,3.73,0,0,1-3.25,2.49c-3,.06-5.61,1.19-8.27,2.26-5.33,2.16-10.81,4-15.87,6.76a4.68,4.68,0,0,1-.9.3,1.65,1.65,0,0,1-1.58-.85,1.49,1.49,0,0,1,.19-1.78,6.47,6.47,0,0,1,1.91-1.4c2.9-1.34,5.82-2.62,8.76-3.87s5.61-2.31,8.39-3.5a1,1,0,0,0,.28-0.71,0.52,0.52,0,0,0-.33-0.31c-1.68-.51-3.34-1.07-5-1.48a64.17,64.17,0,0,1-16.79-6.9,29,29,0,0,1-5.79-4.24c-3.71-3.56-4.9-7.73-3-12.65,2.32-6,6.08-10.89,11.84-13.94a79.36,79.36,0,0,1,18.14-7.43c6.2-1.53,12.31-3.43,18.41-5.32a77.36,77.36,0,0,0,8-3.13,14.93,14.93,0,0,0,5.05-3.59,10.66,10.66,0,0,0,1.65-2.33,3.06,3.06,0,0,0-.44-3.57,14.72,14.72,0,0,0-4.52-3.5,121.41,121.41,0,0,0-16.07-7.46,158.32,158.32,0,0,1-19.69-8.77,50.91,50.91,0,0,1-6.48-4.08c-4.54-3.26-4.27-8-2.66-11.54a15.83,15.83,0,0,1,4-5.36,71,71,0,0,1,6.35-5.09,62.53,62.53,0,0,1,13-7.14,8.18,8.18,0,0,1,1.83-.51,1.55,1.55,0,0,1,1.55.89,1.59,1.59,0,0,1-.28,1.76,20.82,20.82,0,0,1-2.49,1.39,67.56,67.56,0,0,0-12.07,6.86,65.63,65.63,0,0,0-5.9,4.89,11.29,11.29,0,0,0-3.13,4.77,4.93,4.93,0,0,0,1.36,5.68,16.23,16.23,0,0,0,2.28,1.74,58.64,58.64,0,0,0,5.79,3.39,194.68,194.68,0,0,0,18.89,8.21,109.34,109.34,0,0,1,16,7.57,17.78,17.78,0,0,1,4.89,3.83A7.46,7.46,0,0,1,934.91,328.47Z" transform="translate(-866.83 -273.14)"/></svg>