<svg id="Layer_1" data-name="Layer 1" xmlns="http://www.w3.org/2000/svg" viewBox="0 0 151.59 76.31"><title>arrow-26</title><path d="M982.31,624.53c-5.53,1-11.18,2-16.82,3.15-23,4.61-45,12.26-66.64,21.06-8.44,3.43-16.84,7-25.25,10.46A186.9,186.9,0,0,0,852,669.61c-1,.55-2,1.07-3,1.53a1.66,1.66,0,0,1-2.06-1.43,5.84,5.84,0,0,1,2.41-5.44,21.38,21.38,0,0,1,3.28-2c4.29-2.13,8.58-4.29,12.93-6.29,6-2.74,12-5.36,17.95-8a492.84,492.84,0,0,1,60.35-21.91c8.74-2.59,17.58-4.79,26.48-6.71a13.38,13.38,0,0,0,1.37-.38,0.69,0.69,0,0,0,.32-0.3,0.49,0.49,0,0,0-.26-0.8,130.75,130.75,0,0,0-15.48-5c-7.75-2-15.43-4.15-23-6.73-2.72-.93-5.41-1.95-8.09-3a11.41,11.41,0,0,1-2.49-1.41,2.27,2.27,0,0,1-.85-2.13,5.59,5.59,0,0,1,2.29-4.05,2.67,2.67,0,0,1,2.26-.54,9,9,0,0,1,1.81.6,114.9,114.9,0,0,0,21.31,7.24q11.84,3.05,23.46,6.84c4.7,1.54,9.57,2.53,14.37,3.74,2.63,0.67,5.28,1.29,7.91,1.94a13.62,13.62,0,0,1,1.82.57,2.53,2.53,0,0,1,1.33,2.8,7.39,7.39,0,0,1-2.17,3.66,5,5,0,0,1-.76.58c-7,4-11.41,10.58-16.32,16.68-2.93,3.64-4.82,7.89-7.27,11.81a23.64,23.64,0,0,0-1.45,3c-1.61,3.65-3.18,7.31-4.81,11a4.12,4.12,0,0,1-2.25,2.38,2.11,2.11,0,0,1-1.84-.06,2.16,2.16,0,0,1-1.19-1.94,3.7,3.7,0,0,1,.23-1.41c0.68-1.79,1.37-3.58,2.12-5.34s1.56-3.16,2.17-4.8a63.42,63.42,0,0,1,3.83-7.72c3.42-6.39,7.94-12,12.33-17.68,0.78-1,1.58-2,2.34-3a1.41,1.41,0,0,0,.23-0.85A2.11,2.11,0,0,0,982.31,624.53Z" transform="translate(-846.95 -594.93)"/></svg>