<svg id="Layer_1" data-name="Layer 1" xmlns="http://www.w3.org/2000/svg" viewBox="0 0 48.34 74.46"><title>arrow-3</title><path d="M592.74,71.86a8.89,8.89,0,0,1,1.11.26A7.58,7.58,0,0,1,597,74.29c5.94,6.5,12.63,12.21,19,18.25,4.06,3.84,8.09,7.72,12.2,11.51,1.64,1.51,3.45,2.84,5.19,4.25,1.12,0.91,2.27,1.76,3.35,2.72,1.58,1.4,1.42,2.59-.49,3.76-1,.58-2,1.08-3,1.58-1.86.92-3.74,1.81-5.61,2.72-0.86.42-1.72,0.84-2.56,1.3a1.43,1.43,0,0,0-.81,2,60.39,60.39,0,0,0,4.8,9.88c0.56,1,1.16,1.92,1.65,2.92,1,2,.71,3.28-1,4.59-0.77.57-1.58,1.08-2.38,1.61-1.74,1.14-3.48,2.26-5.22,3.4a10.19,10.19,0,0,1-3.49,1.54,2.31,2.31,0,0,1-2.52-1c-0.61-1.11-1.14-2.28-1.65-3.44a70,70,0,0,0-5.12-9.75c-0.82-1.28-1.3-1.44-2.8-.81-1.32.55-2.6,1.22-3.89,1.84-2.3,1.1-4.58,2.25-6.91,3.3a2.37,2.37,0,0,1-3.45-1.51,11.27,11.27,0,0,1-.76-2.75c-0.52-5.08-1.72-10.08-1.59-15.24a27,27,0,0,1,.2-5.24,6,6,0,0,0,.05-2.37,35.29,35.29,0,0,1-.11-9.56,15.37,15.37,0,0,0-.27-5.23,11.11,11.11,0,0,1-.36-2.85c0-4.47.14-8.94,0.14-13.41a16.15,16.15,0,0,1,1.28-5.55A1.73,1.73,0,0,1,592.74,71.86Zm3.79,41.09c0,0.22,0,.86,0,1.49a4.76,4.76,0,0,0,.23.91,2.12,2.12,0,0,0,.49-0.66c0.35-1.55.67-3.11,1-4.66,1.51-7.47,2.53-15,4.48-22.43,0.41-1.56-.67-2.33-1.66-3.12a1,1,0,0,0-.87-0.1,1,1,0,0,0-.5.68q-1,8.76-2,17.53C597.32,105.89,596.95,109.21,596.53,112.94Zm23.85,17.82c0-2.06,0-4,0-5.89a2.61,2.61,0,0,0-1.09-2.05c-0.37-.27-1,0.55-1.24,1.69-0.37,1.72-.72,3.44-1.08,5.16-1,5-1.05,5,1.2,9.54a1,1,0,0,0,1.06.78,1,1,0,0,0,.42-0.77C619.91,136.35,620.14,133.49,620.38,130.76ZM606.67,90.18a1.71,1.71,0,0,0-.61.6c-0.44,3-.84,6-1.24,9q-1.16,8.49-2.3,17a9.09,9.09,0,0,0-.06,1.43,6.2,6.2,0,0,0,.16.92,3.31,3.31,0,0,0,.41-0.8q2.63-13.06,5.22-26.14a1.73,1.73,0,0,0-1.11-1.89A1.54,1.54,0,0,0,606.67,90.18Zm3.39,21.91,0.18,3.22c1-1.12.89-2.59,1.14-3.89a129.27,129.27,0,0,1,2.79-13c0.39-1.31-.26-2.11-1.18-2.84a1,1,0,0,0-1.55.33,6.18,6.18,0,0,0-.23.92C610.83,101.69,610.47,106.6,610.06,112.09ZM599,124.73h0.27c0-1.27,0-2.54,0-3.8a1.57,1.57,0,0,0-.15-0.45,0.87,0.87,0,0,0-.41.17,33.16,33.16,0,0,1-2.86,7,3.23,3.23,0,0,0,.11,2.76,0.88,0.88,0,0,0,1.19.46A2,2,0,0,0,599,129C599,127.58,599,126.16,599,124.73Zm-4.32-46.2a0.79,0.79,0,0,0-.89.8c0,3.46.05,6.91,0.07,10.37,0,0.45.08,0.65,0.34,0.52a0.58,0.58,0,0,0,.26-0.34c0.71-2.57,1.41-5.15,2.13-7.71C597.06,80.45,596.47,79.3,594.68,78.53Zm22,33.94c0,0.78,0,1.73,0,2.67a0.44,0.44,0,0,0,.24.29,0.57,0.57,0,0,0,.37-0.27q1.43-5.52,2.82-11.05a2,2,0,0,0-.69-2.13,1.8,1.8,0,0,0-.8-0.47,0.79,0.79,0,0,0-.84.87C617.45,105.69,617.1,109,616.72,112.47Zm-9.51,7.72h-0.07c0-1.6,0-3.2,0-4.79a1.57,1.57,0,0,0-.45-0.62,1.08,1.08,0,0,0-.3.35q-1.06,4.92-2.09,9.85a4.5,4.5,0,0,0-.11,1.42,0.82,0.82,0,0,0,.6.52,2.47,2.47,0,0,0,2.44-2.42C607.23,123.07,607.21,121.63,607.21,120.19Zm6.3-2.13a3.64,3.64,0,0,0-.25-1.34c-0.08.3-.18,0.6-0.25,0.9-0.54,2.3-1.1,4.6-1.61,6.91a3.39,3.39,0,0,0,0,1.39,0.82,0.82,0,0,0,.66.48c0.62-.12.33,0.55,0.42-0.08C612.84,123.5,613.23,120.69,613.51,118.06Zm11.83-4.85a3.77,3.77,0,0,0,.18,1.1,1.08,1.08,0,0,0,.67.5,1.46,1.46,0,0,0,1.74-1.61,9.88,9.88,0,0,0-.95-2.08,1.12,1.12,0,0,0-.76-0.21,0.45,0.45,0,0,0-.33.27C625.67,111.91,625.48,112.66,625.34,113.21Zm-4.14,1.69c0-.31,0-0.77,0-1.23a6.89,6.89,0,0,0-.17-0.89,3.19,3.19,0,0,0-.42.78c-0.29,1.32-1.15,2.54-.75,4a0.46,0.46,0,0,0,.3.29,0.61,0.61,0,0,0,.41-0.18C621.33,116.91,621.06,115.93,621.2,114.9Zm2.46,21.2c0,0.31,0,.62,0,0.91s0.31,0.62.61,0.45a3.73,3.73,0,0,0,1.41-1,1.31,1.31,0,0,0-.51-1.59,0.93,0.93,0,0,0-.76-0.23,1.21,1.21,0,0,0-.61.6A3.22,3.22,0,0,0,623.66,136.1Z" transform="translate(-589.45 -71.85)"/></svg>