<svg id="Layer_1" data-name="Layer 1" xmlns="http://www.w3.org/2000/svg" viewBox="0 0 77.01 99.71"><title>arrow-27</title><path d="M1146.24,593c2.24,0,4.48-.08,6.71,0a87.23,87.23,0,0,0,14.85-.25,36.79,36.79,0,0,1,5.74-.13,2,2,0,0,1,1.81,2.76c-0.44,1.36-1,2.71-1.54,4-4.05,9.39-8.09,18.79-12.67,27.94a8.79,8.79,0,0,0-.82,1.73c-1,3.92-3.18,7.32-4.59,11.05a33.3,33.3,0,0,1-1.91,3.86,9.66,9.66,0,0,1-1.11,1.55,1.93,1.93,0,0,1-3.25,0c-1.85-3-3.58-6-5.37-9.08-0.73-1.23-1.46-2.47-2.24-3.67a0.81,0.81,0,0,0-.78-0.13,13.88,13.88,0,0,0-1.56,1.79c-3,4.14-6,8.3-9,12.43a33.44,33.44,0,0,1-2.46,2.94,12.28,12.28,0,0,0-2.09,3.75,1.15,1.15,0,0,0,.65,1.56,26,26,0,0,0,2.69,1c7.09,2,14,4.56,20.88,7.08,0.75,0.27,1.53.47,2.27,0.77a2.88,2.88,0,0,1,1.81,2.09c0.51,2.34,1.06,4.68,1.49,7q1.22,6.6,2.31,13.22a11.57,11.57,0,0,1,.11,2.86,3.32,3.32,0,0,1-4,3c-7-1.58-14-3.15-21-4.9-8.83-2.22-17.62-4.64-26.55-6.46-0.62-.13-1.23-0.34-1.84-0.52a2.14,2.14,0,0,1-1.62-1.58c-0.59-2.49-1.19-5-1.73-7.47-0.23-1.09-.3-2.22-0.45-3.33-0.65-5.07-1.2-10.15-2.23-15.17a11.44,11.44,0,0,1,2.23-9.52c4.27-5.59,8-11.55,12.85-16.72a6.4,6.4,0,0,0,.94-1.09c2.56-4.48,6.14-8.17,9.36-12.14,1.15-1.41,1.51-2.62.47-4.27-1.61-2.58-3-5.27-4.51-7.92a18,18,0,0,1-1.28-2.57,3.38,3.38,0,0,1,2.6-4.35,67.82,67.82,0,0,1,12.88-1c4,0.1,8-.07,12-0.12V593Zm2.31,5.36c-5.31.09-10.11,0.14-14.9,0.27-2.52.07-5.09-.64-7.53,0.48-0.65.3-.32,1,3.16,7.18,2.31,4.08,2.3,4.52-.85,7.92a87.84,87.84,0,0,0-10.4,13.13,25.71,25.71,0,0,1-2.68,3.37,172.88,172.88,0,0,0-11,14.49,6.57,6.57,0,0,0-1.13,5.42c0.65,3.28,1,6.62,1.51,9.94,0.29,2.06.49,4.12,0.81,6.18,0.22,1.42.54,2.82,0.87,4.21a0.87,0.87,0,0,0,.62.51,1.15,1.15,0,0,0,.84-0.33,41.11,41.11,0,0,0,5.73-7.66,21.51,21.51,0,0,1,3.6-5,16.6,16.6,0,0,0,1.67-2.32,40.73,40.73,0,0,1,2.52-3.49,34.38,34.38,0,0,0,3.38-4.64,40.49,40.49,0,0,1,2.76-3.91c4-5,7.82-10.11,11.39-15.42,0.53-.79,1.13-1.55,1.74-2.29a7.57,7.57,0,0,1,1-1,1.87,1.87,0,0,1,2.56.39c1.46,2.47,2.86,5,4.28,7.48,0.79,1.39,1.57,2.78,2.38,4.15,0.43,0.72,1.1.74,1.45,0.06a52.17,52.17,0,0,0,3.67-7.78,39.69,39.69,0,0,1,1.89-4.4q5.35-11.78,10.7-23.55a10.21,10.21,0,0,0,.74-2.26,0.88,0.88,0,0,0-.75-1,8.7,8.7,0,0,0-1.89-.15C1160.49,598.69,1154.26,598.52,1148.55,598.36Zm4.09,85.51c-0.78-4.37-1.54-8-2-11.59-0.29-2.16-1.1-3.42-3.36-4s-4.49-1.62-6.75-2.37c-5.59-1.86-11.19-3.67-16.79-5.52a1.8,1.8,0,0,0-2.16.44q-5.43,6.67-10.8,13.39c-0.54.68-.17,1.44,0.82,1.69,4.48,1.12,9,2.21,13.44,3.33,7.57,1.89,15.13,3.8,22.71,5.67,1.23,0.3,2.5.48,3.75,0.67a1.17,1.17,0,0,0,1.25-1.12A4,4,0,0,0,1152.64,683.87Z" transform="translate(-1098.46 -592.6)"/></svg>