<svg id="Layer_1" data-name="Layer 1" xmlns="http://www.w3.org/2000/svg" viewBox="0 0 161.67 114.52"><title>arrow-34</title><path d="M559.42,779.31a142.49,142.49,0,0,1-1,16.66,14.81,14.81,0,0,1-.4,1.86,1.86,1.86,0,0,1-2,.88c-0.84-.45-1.67-0.94-2.45-1.47-2-1.34-3.93-2.74-5.92-4.08a1.34,1.34,0,0,0-2.05.44c-3.45,4.81-6.92,9.6-10.29,14.45Q521.41,828,507.7,847.92c-3,4.32-4.38,3.28-6-.54-4.78-11-9.65-21.94-14.4-32.95-1.46-3.37-2.65-6.85-4-10.26a1.12,1.12,0,0,0-.7-0.37,0.55,0.55,0,0,0-.37.27c-0.34.54-.67,1.09-1,1.65-3.48,6.66-7,13.3-10.42,20q-13.35,26-26.64,52.07c-0.73,1.42-1.52,2.81-2.38,4.16a1.77,1.77,0,0,1-2.87-.17,28.85,28.85,0,0,1-1.53-3q-7.55-17.1-15.08-34.22c-0.52-1.17-1.09-2.31-1.67-3.45a1,1,0,0,0-1.62-.21c-0.49.42-1,.85-1.42,1.29l-14.95,14.21c-0.58.55-1.17,1.08-1.79,1.59a1.59,1.59,0,0,1-2.16-.17,1.78,1.78,0,0,1-.15-2.21,19.4,19.4,0,0,1,1.57-1.8c2.27-2.26,4.53-4.51,6.84-6.72,3.7-3.54,7.43-7,11.15-10.55,0.35-.33.69-0.67,1.06-1a2.08,2.08,0,0,1,3.28.5c0.6,1.12,1.12,2.3,1.64,3.46q7.11,16,14.2,32c0.58,1.31,1.21,2.6,1.83,3.9a0.64,0.64,0,0,0,1.13-.14c0.55-1,1.11-1.94,1.62-2.93,6-11.49,11.95-23,17.85-34.49,3.72-7.26,7.27-14.59,11-21.87,3-5.84,6-11.65,9-17.46a9.63,9.63,0,0,1,1.08-1.55,1.75,1.75,0,0,1,2.2,0,11.44,11.44,0,0,1,1.26,2c5.77,12.65,11.34,25.38,16.43,38.33,2.7,6.86,3,7.34,3.58,6.94,2.18-1.49,3.25-3.88,4.7-6,5.12-7.35,10.11-14.78,15.21-22.13,5.28-7.62,10.63-15.19,15.95-22.79,0.46-.65.9-1.32,1.33-2a1.33,1.33,0,0,0-.32-1.72c-2.35-1.66-4.73-3.28-7.07-4.95a30.44,30.44,0,0,1-2.62-2.08,1.87,1.87,0,0,1,.32-2.57,14,14,0,0,1,1.65-1q10.78-5.23,21.58-10.44c2.69-1.29,4.05-.46,3.95,2.43C559.79,774.28,559.53,777.47,559.42,779.31Zm-3.53-3.38c0-.61,0-0.93,0-1.25,0-1-.59-1.55-1.46-1.15-2.17,1-4.32,2.05-6.48,3.08-2.59,1.24-5.19,2.46-7.78,3.71a16.57,16.57,0,0,0-1.63,1,0.89,0.89,0,0,0,0,1.25c4.6,3.73,9.73,6.66,14.71,9.82,0.47,0.3,1.15-.27,1.23-1C555.07,786.14,555,780.84,555.89,775.93Z" transform="translate(-398.24 -768.07)"/></svg>