<svg id="Layer_1" data-name="Layer 1" xmlns="http://www.w3.org/2000/svg" viewBox="0 0 136.04 146.38"><title>arrow-11</title><path d="M199.4,303a84,84,0,0,1-2.52,20,65.67,65.67,0,0,1-4.07,12.26c-3.59,7.37-7.87,14.26-13.8,20-2.29,2.23-4.59,4.45-6.95,6.61a38.73,38.73,0,0,1-8.25,5.73,21.44,21.44,0,0,0-2.12,1.11c-5.81,3.93-12.42,5.89-19.13,7.36-5.44,1.18-11,2.13-16.64,1.12a11.44,11.44,0,0,0-1.43-.17c-9-.47-17-3.77-24.44-8.85C88.2,360,79.26,349.31,72.08,337a79.75,79.75,0,0,1-6.44-14.43,41.15,41.15,0,0,1-1.11-23.16,60,60,0,0,1,7.52-18.58c1.37-2.16,2.71-4.34,4.11-6.48a11.34,11.34,0,0,1,1.54-1.82,1.58,1.58,0,0,1,1.78-.29,1.9,1.9,0,0,1,.71,2.09,16.19,16.19,0,0,1-.9,1.68c-1.19,1.9-2.38,3.79-3.6,5.66a59.66,59.66,0,0,0-8.61,23.2,14.22,14.22,0,0,0-.22,2.86A49.25,49.25,0,0,0,70,324.18a96.11,96.11,0,0,0,18.31,29,86.64,86.64,0,0,0,16.89,14.09c3.51,2.33,7.53,3.47,11.45,4.84a27.91,27.91,0,0,0,8.45,1.48,67.49,67.49,0,0,0,11.48-.13c7.66-1.08,15-3,21.76-7a13.88,13.88,0,0,1,1.24-.72c8.55-3.86,15-10.38,20.83-17.37a60.23,60.23,0,0,0,12.39-23.57,112.59,112.59,0,0,0,3.07-18.41,33.68,33.68,0,0,0-.12-6.7c-0.48-4.29-.92-8.6-1.81-12.81-2.35-11.19-7-21.2-15.67-29a34.94,34.94,0,0,0-11.9-7,63.88,63.88,0,0,0-13-3.13,27,27,0,0,0-8.59-.14,11.58,11.58,0,0,1-2.39.13,58.76,58.76,0,0,0-16.54,2.49c-2.47.66-4.9,1.45-7.34,2.21a0.86,0.86,0,0,0-.84.84,1.22,1.22,0,0,0,.77.5c4.11,1.32,8.23,2.58,12.32,3.94,1.34,0.45,2.82.77,3.77,1.94a1.85,1.85,0,0,1,.14,1.33,1.18,1.18,0,0,1-.75.51,2.29,2.29,0,0,1-.94.06,9.09,9.09,0,0,1-1.41-.27c-6.15-1.71-12.23-3.69-18.51-4.94a7,7,0,0,1-1.35-.49,3.09,3.09,0,0,1-1.91-3,7.14,7.14,0,0,1,.15-1.43c1.19-4.64,2.34-9.3,3.64-13.9a30,30,0,0,1,2.06-4.84,3.32,3.32,0,0,1,1.31-1.32,1.52,1.52,0,0,1,1.33.06,1.64,1.64,0,0,1,.59,1.19,3.19,3.19,0,0,1-.49,1.31c-2.26,4.66-3.13,9.69-3.91,14.75a0.89,0.89,0,0,0,.93.84c0.62-.13,1.24-0.26,1.85-0.44q3.46-1,6.9-2A81.94,81.94,0,0,1,150.18,244a42.57,42.57,0,0,1,7.59,1A59,59,0,0,1,171,249c9,4.31,15.49,11.2,20.14,19.86a61.7,61.7,0,0,1,7,22.29C198.66,295.58,199.58,300,199.4,303Z" transform="translate(-63.38 -231.24)"/></svg>