<svg id="Layer_1" data-name="Layer 1" xmlns="http://www.w3.org/2000/svg" viewBox="0 0 87.67 152.8"><title>arrow-44</title><path d="M1180.48,934.64c0.24-3.63.35-6.67,0.66-9.69a35,35,0,0,1,1.08-6.13c2.39-8.29,4.79-16.59,7.85-24.66,1.3-3.43,3-6.7,4.55-10s2.85-6.43,4.44-9.56a3.93,3.93,0,0,0-.39-4.79c-3.15-4-6-8.26-9.7-11.87-2.28-2.23-4.27-4.76-6.34-7.2a92.77,92.77,0,0,0-8.75-8.87q-8-7.21-16.11-14.36a0.58,0.58,0,0,0-.44-0.09,1.26,1.26,0,0,0-.31.76,16.71,16.71,0,0,0,.91,2.21c1.06,2.15,2.22,4.26,3.19,6.44q1.85,4.15,3.44,8.42a8.22,8.22,0,0,1,.3,2.82,2.09,2.09,0,0,1-2,1.77,2,2,0,0,1-1.92-1.17c-0.18-.44-0.31-0.9-0.46-1.36a36.88,36.88,0,0,0-1.27-3.62c-3.37-7.24-6.52-14.59-10.89-21.33-0.35-.54-0.73-1.06-1-1.62a2.42,2.42,0,0,1,2.31-3.62,12.34,12.34,0,0,1,2.84.35c2.16,0.57,4.32,1.18,6.44,1.88,5.76,1.91,11.52,3.84,17.25,5.84,2.56,0.89,5.06,2,7.57,3a8.86,8.86,0,0,1,1.63,1,2.08,2.08,0,0,1,.48,2.19,2.28,2.28,0,0,1-1.85,1.31,8,8,0,0,1-3.64-1.07,115.93,115.93,0,0,0-13.13-4.51,1.35,1.35,0,0,0-.78.29,0.71,0.71,0,0,0,.12.44,9,9,0,0,0,1,1.05c0.84,0.74,1.7,1.45,2.56,2.18,1.71,1.44,3.42,2.89,5.14,4.33a124.7,124.7,0,0,1,14.94,14.87c1.14,1.34,2.27,2.7,3.52,3.93a63.9,63.9,0,0,1,6.8,8c0.84,1.15,1.8,2.22,2.73,3.31a0.48,0.48,0,0,0,.82-0.05,17.65,17.65,0,0,0,1.36-2c3.53-6.65,7.73-12.88,11.83-19.18a84.22,84.22,0,0,1,9.7-12.48c1.44-1.5,2.71-3.15,4.11-4.68a16.69,16.69,0,0,1,2.14-1.89,0.9,0.9,0,0,1,.87,0,1.69,1.69,0,0,1,.6,1.16,39.52,39.52,0,0,1-4.2,8.05c-4.9,7.49-9.85,14.95-14.58,22.55-2.7,4.34-5,8.93-7.46,13.41a2.4,2.4,0,0,0,.14,2.7c0.63,0.92,1.26,1.85,1.93,2.74a90.83,90.83,0,0,1,10.08,16.83c2,4.34,4.55,8.43,6.34,12.9a94.83,94.83,0,0,1,5.5,16.83,52.93,52.93,0,0,1,1,11.43c0,1.28-.11,2.56-0.13,3.84-0.17,9.44-4.15,17.37-10.29,24.16-5.33,5.88-12.34,8.38-20.29,8a17.4,17.4,0,0,1-9.37-3.31c-6-4.27-9.56-10.2-11.32-17.26C1180.76,944.29,1180.73,939.15,1180.48,934.64Zm5.62,0.52a57.81,57.81,0,0,0,.89,10.5,27.09,27.09,0,0,0,4.13,10.65,19.57,19.57,0,0,0,6.14,6,9.85,9.85,0,0,0,4,1.6,19.69,19.69,0,0,0,16.45-4.93c4.92-4.45,7.34-10.37,9.3-16.51a107.21,107.21,0,0,0,.62-11,52.73,52.73,0,0,0-3.39-16.38,106.59,106.59,0,0,0-7.66-17c-0.81-1.37-1.44-2.85-2.12-4.3a73.54,73.54,0,0,0-6.79-11.57c-0.92-1.28-1.66-2.75-3.05-3.64-1.73.92-1.73,2.9-2.61,4.34-0.75,1.22-1.32,2.56-2,3.84a98.1,98.1,0,0,0-6.4,15c-1.53,4.88-3,9.77-4.71,14.6C1186.77,922.41,1186.2,928.75,1186.1,935.16Z" transform="translate(-1146.99 -817.09)"/></svg>