<svg id="Layer_1" data-name="Layer 1" xmlns="http://www.w3.org/2000/svg" viewBox="0 0 94.89 148.46"><title>arrow-18</title><path d="M1539.38,388.15a31.85,31.85,0,0,1-1.94,2.64,1.53,1.53,0,0,1-2.64-.66c-0.45-3-.88-6-1.19-9-0.85-8.1-1.64-16.21-2.45-24.32-0.16-1.59-.33-3.18-0.38-4.78-0.2-6.56-1-13.06-1.79-19.56-1-8.25-1.92-16.5-2.25-24.82-0.17-4.3-.87-8.58-1.35-12.86a3.22,3.22,0,0,0-1.85-2.62c-0.85-.44-1.64-1-2.48-1.45q-21-11.56-42-23.1a26,26,0,0,0-3-1.37,0.85,0.85,0,0,0-.71.4c-0.17,1.74-.29,3.49-0.39,5.23a11.93,11.93,0,0,1-.81,4.68,1.52,1.52,0,0,1-2.4.53c-1.13-1.13-2.23-2.29-3.27-3.5q-9.22-10.73-18.4-21.5c-1.66-1.94-3.37-3.84-5-5.79a1.89,1.89,0,0,1-.27-2.23,2,2,0,0,1,1.9-1.22,25.88,25.88,0,0,1,3.8.46c13,2.83,25.86,5.83,38.67,9.24,0.46,0.12.93,0.22,1.39,0.36a1.79,1.79,0,0,1,1.22,1.36,2.26,2.26,0,0,1-1,2.05,14.83,14.83,0,0,1-2.22.85c-2.16.58-4.34,1.08-6.5,1.67a12,12,0,0,0-2.19.91,0.82,0.82,0,0,0,0,.74,8.48,8.48,0,0,0,1.54,1.1c5.31,2.94,10.58,6,16,8.75,6,3.08,11.91,6.18,17.73,9.52,3.32,1.9,6.8,3.53,10.21,5.28,0.43,0.22.86,0.41,1.3,0.6a6.16,6.16,0,0,1,3.89,5.57c0.47,5.73,1,11.45,1.48,17.18,0.4,4.94.68,9.88,1.48,14.78,0.61,3.78.91,7.62,1.24,11.43,0.88,10.19,1.26,20.41,2.66,30.56,0.72,5.21.86,10.51,1.23,15.77a15.45,15.45,0,0,0,.79,5.16v1.92Z" transform="translate(-1444.49 -242.84)"/></svg>