<svg id="Layer_1" data-name="Layer 1" xmlns="http://www.w3.org/2000/svg" viewBox="0 0 97.34 31.7"><title>arrow-10</title><path d="M1043.59,198.8c-10.21-.49-19.18,2.91-27.27,8.85a30.23,30.23,0,0,0-4,4.12,1.29,1.29,0,0,0,.08,1.74c0.82,1.18,1.69,2.33,2.49,3.53a1.94,1.94,0,0,1-.78,2.83,9.17,9.17,0,0,1-2.23.83c-2.67.48-5.36,0.88-8,1.28a7,7,0,0,1-1.43,0,2.41,2.41,0,0,1-2.35-2.51,7.76,7.76,0,0,1,.16-1.43q1.39-5.58,2.84-11.15a5.67,5.67,0,0,1,.65-1.27,1.56,1.56,0,0,1,2.1-.38,7.33,7.33,0,0,1,1.09.93c0.52,0.61,1,1.28,1.46,1.9,1,1.29,1.38,1.32,2.6,0,6.71-7.51,15.52-11.09,25.05-13.06,10.12-2.09,20-.49,29.79,2.48a77.33,77.33,0,0,1,12.82,5.33,41.54,41.54,0,0,1,10.49,7.51c1.75,1.75,1.78,1.71,3.78-.08,0.8-.72,1.46-2,2.74-1.46,0.89,0.39,1.05,1.57,1.18,2.5a63.84,63.84,0,0,1,.49,12,4.17,4.17,0,0,1-.08.47,2.41,2.41,0,0,1-2.79,2,7,7,0,0,1-.93-0.23c-3.17-1.1-6.34-2.2-9.5-3.33a1.5,1.5,0,0,1-.75-2.33,17.48,17.48,0,0,1,1.22-1.47c0.66-.7,1.37-1.34,2-2a1.39,1.39,0,0,0-.13-2.1,25.89,25.89,0,0,0-5.15-4.29,57.57,57.57,0,0,0-18.23-8.3A83.48,83.48,0,0,0,1043.59,198.8Z" transform="translate(-1000.06 -194.01)"/></svg>