<svg id="Layer_1" data-name="Layer 1" xmlns="http://www.w3.org/2000/svg" viewBox="0 0 81.61 83.35"><title>arrow-39</title><path d="M127.3,958.72c2.08-.1,4.15-0.22,6.23-0.29a4.84,4.84,0,0,1,1.88.21,1.56,1.56,0,0,1,.81,1.08,1.37,1.37,0,0,1-.57,1.14,6.18,6.18,0,0,1-2.27.59q-6,.28-12,0.42a26.43,26.43,0,0,1-7.12-.92c-3.25-.82-6.52-1.61-9.75-2.5a60.07,60.07,0,0,1-15.92-6.52,39.11,39.11,0,0,1-14.43-16.32,44.24,44.24,0,0,1-4.27-13.69c-1.14-8.2,0-15.94,4.74-22.93,0.36-.53.74-1.05,1-1.61,3.12-5.75,8.09-9.4,13.82-12.14,3.32-1.58,6.66-3.15,10.1-4.44a32.25,32.25,0,0,1,16.49-1.94c1.74,0.27,3.48.53,5.23,0.68a19.5,19.5,0,0,1,11.45,4.38c1.58,1.34,3.33,2.49,5,3.7a21,21,0,0,1,6.13,6.66c1.58,2.78,3.25,5.53,4.57,8.43,3.92,8.59,3.33,17.08-.94,25.4a12.66,12.66,0,0,1-4.16,4.56c-4.94,3.46-10.36,5.83-16.41,6.16-6.26.34-12.07-1.13-16.79-5.61a26.43,26.43,0,0,1-6.56-9.36,39.05,39.05,0,0,0-1.91-3.83,1,1,0,0,0-.74.14c-0.6,2-1.14,4-1.7,6-0.35,1.23-.68,2.46-1.06,3.68a1.46,1.46,0,0,1-1.62.65,1.43,1.43,0,0,1-1-1.47,5.39,5.39,0,0,1,.26-1.41q1.87-7.69,3.75-15.37a13.93,13.93,0,0,1,.64-1.8,1.56,1.56,0,0,1,1.65-.64,6.15,6.15,0,0,1,1.26.66q7,5.82,14,11.68a1.63,1.63,0,0,1,.59.73,2,2,0,0,1,0,1.33,1.41,1.41,0,0,1-1.17.59,5.47,5.47,0,0,1-2.12-1c-2.62-2.1-5.17-4.29-7.75-6.43a12.23,12.23,0,0,0-1.53-1.14,1.17,1.17,0,0,0-.79.09,0.45,0.45,0,0,0-.15.41c1.8,6.07,4.37,11.71,9.66,15.59a18.93,18.93,0,0,0,13.16,3.5,29.87,29.87,0,0,0,14.6-5.66,10.85,10.85,0,0,0,3.64-4.36,25,25,0,0,0-.19-23.08c-0.29-.57-0.6-1.13-0.9-1.69-4.69-8.74-5.33-8.88-11.43-13.22a4,4,0,0,1-.38-0.29,18,18,0,0,0-12.62-5,12.19,12.19,0,0,1-2.37-.32,29.92,29.92,0,0,0-19.14,2.54c-2,1-4.09,1.81-6.15,2.68a38,38,0,0,0-7.45,4.32,18.82,18.82,0,0,0-5,5.16q-1.29,2-2.61,4c-4.4,6.64-5.27,13.94-4,21.61a42.36,42.36,0,0,0,3.66,11.39A36.21,36.21,0,0,0,96.1,952.36a80.89,80.89,0,0,0,8.15,2.83c3.84,1.1,7.74,2,11.61,3a27.09,27.09,0,0,0,8.09.69c1.12,0,2.23-.15,3.35-0.22v0.06Z" transform="translate(-69.51 -878.52)"/></svg>