<svg id="Layer_1" data-name="Layer 1" xmlns="http://www.w3.org/2000/svg" viewBox="0 0 133.14 136.4"><title>arrow-36</title><path d="M936.94,793.6a26.11,26.11,0,0,1,1.21-9.79,27.32,27.32,0,0,0,.95-4.89c0.66-4.79,1.49-9.49,4-13.77a56.76,56.76,0,0,0,2.56-6.15,4.82,4.82,0,0,1,1.28-1.75,2,2,0,0,1,2.09-.16,2.16,2.16,0,0,1,1.24,1.71,2.19,2.19,0,0,1-.14,1.09,60.3,60.3,0,0,1-3.09,7.73,28.91,28.91,0,0,0-3.19,10.57,36.6,36.6,0,0,1-1.68,8.15,16.2,16.2,0,0,0-.75,5.49,97.1,97.1,0,0,0,1.78,20.46,33.19,33.19,0,0,0,4.8,11.66c3.26,5.08,7,9.59,12.12,12.8a14,14,0,0,1,1.37,1c9.13,7.32,20,10.18,31.18,12.4a21,21,0,0,0,4.43.2c1.67,0,3.33-.18,5-0.31,8.33-.66,9.56-0.94,17.18-4.08a21,21,0,0,0,3-1.46c2.84-1.74,5.65-3.54,8.45-5.34a1.23,1.23,0,0,0,.54-0.87c0-.8-0.73-0.63-1.22-0.63-1.85,0-3.71,0-5.56,0a15.38,15.38,0,0,1-2.76-.23,4.09,4.09,0,0,1-1.44-.76,2.3,2.3,0,0,1-.68-2.5,2.14,2.14,0,0,1,1.58-1.4,1.75,1.75,0,0,1,.54-0.13c5.39,0.24,10.73-.45,16.09-0.92a9.36,9.36,0,0,1,2.2.19,2.5,2.5,0,0,1,1.81,1.91,15.1,15.1,0,0,1-.17,3.3c-0.64,3.08-1.38,6.15-2.13,9.21-0.7,2.88-1.44,5.75-2.18,8.62a9.58,9.58,0,0,1-.59,1.55,2.54,2.54,0,0,1-2.86,1.14,2.49,2.49,0,0,1-1.66-2c0.26-2,.56-4,1-6,0.36-1.81.88-3.58,1.26-5.39a1.1,1.1,0,0,0-.76-0.52,22.88,22.88,0,0,0-6.19,3.64,23.41,23.41,0,0,1-7.8,4.17c-3,1-5.79,2.46-8.94,3-6.27,1.13-12.57.79-18.87,0.67-4.83-1.28-9.7-2.46-14.48-3.89a82,82,0,0,1-8.29-3.21,20.61,20.61,0,0,1-3.89-2.13c-3.93-2.79-7.8-5.67-11.68-8.53-3-2.24-5.2-5.29-7.25-8.37-5.77-8.65-6.51-10.22-8-20.42C937.53,803.69,936.71,798.72,936.94,793.6Z" transform="translate(-936.89 -721.3)"/><path d="M1070,795.38a19.1,19.1,0,0,1-1.3,8.35,20,20,0,0,0-1.1,4.3,33.45,33.45,0,0,1-2.75,7.85,18.13,18.13,0,0,1-5.76,6.67,2.26,2.26,0,0,1-2.59-.1,2.32,2.32,0,0,1-.53-2.56,9.4,9.4,0,0,1,1.64-2.19c3-2.56,4.18-6,5.21-9.63a49.74,49.74,0,0,1,1.36-5.39c1.55-3.75,1.52-7.6,1.22-11.5a63.07,63.07,0,0,0-2.83-14.71c-0.4-1.23-.62-2.52-1-3.74a19.36,19.36,0,0,0-1.64-4.1c-2.16-3.46-4.49-6.81-6.75-10.2a32.83,32.83,0,0,0-5.45-6.29c-1.24-1.12-2.5-2.22-3.65-3.43-7.35-7.74-16.69-12.19-26.41-16-3.66-1.43-7.6-1.67-11.46-2a37.65,37.65,0,0,0-22.45,4.87c-1.93,1.1-4,1.93-6,2.94a1.5,1.5,0,0,0-.55.87c-0.14.47,0.12,0.7,0.61,0.73,0.74,0.05,1.48.12,2.21,0.22,2.57,0.34,5.15.67,7.71,1.07a8.36,8.36,0,0,1,2.08.71,2.49,2.49,0,0,1,1.25,2.81,2.46,2.46,0,0,1-2.52,1.78c-1.66-.18-3.3-0.47-5-0.63-4.06-.38-8.12-0.7-12.18-1.05-0.92-.08-1.85-0.13-2.76-0.28a3,3,0,0,1-2.24-2.84,10.74,10.74,0,0,1,.19-1.65c0.91-4.73,1.79-9.47,2.77-14.19a19.6,19.6,0,0,1,1.31-3.65,2.44,2.44,0,0,1,2.91-1,2.27,2.27,0,0,1,1.49,2.13c-0.17,1.28-.58,2.53-0.68,3.8-0.17,2.34-1.84,4.51-.82,7,2.39-.47,4.39-1.85,6.58-2.8a8.44,8.44,0,0,0,1.44-.84c2.63-1.83,5.65-2.69,8.64-3.7,9-3,18-1.69,26.91.08a20,20,0,0,1,3.67,1.29,115.87,115.87,0,0,1,18.12,9.69,27.07,27.07,0,0,1,3.86,3.16c2.43,2.29,4.72,4.73,7.19,7a51,51,0,0,1,8.39,10.34c1.6,2.49,3.24,5,4.8,7.49a12.6,12.6,0,0,1,1.74,3.46c1.35,5.58,3.59,10.91,4.35,16.66A64.42,64.42,0,0,1,1070,795.38Z" transform="translate(-936.89 -721.3)"/></svg>