<svg id="Layer_1" data-name="Layer 1" xmlns="http://www.w3.org/2000/svg" viewBox="0 0 85.23 82.2"><title>arrow-15</title><path d="M1070.79,357.49c3.2,0,6.39,0,9.59,0a1.68,1.68,0,0,0,1.88-1.72c0.08-1.44,0-2.88.11-4.31a15.06,15.06,0,0,1,.36-2.34,0.89,0.89,0,0,1,1.13-.61,4.81,4.81,0,0,1,1.79.63c3.89,2.55,8.05,4.58,12.16,6.74a17.26,17.26,0,0,1,1.62,1,1.29,1.29,0,0,1,.24,1.71q-2.28,2.12-4.6,4.19c-1.67,1.49-3.37,2.94-5.06,4.41a16,16,0,0,1-2.57,2.15c-1.48.81-2.44,2.62-4.47,2.38-1-1.45-.47-3.09-0.56-4.64-0.27-4.52-.26-4.47-4.74-4.33-4.79.15-9.59,0.12-14.39,0.2a22.52,22.52,0,0,0-3.33.24,2,2,0,0,0-.94.94,1.8,1.8,0,0,0-.18.93c-0.05,6.08-.11,12.15-0.12,18.23,0,1.46.58,2,2,2.07,0.8,0.06,1.6.07,2.4,0.1,1.12,0,2.23,0,3.35.09a1.32,1.32,0,0,1,1,1.79,6.09,6.09,0,0,1-.7,1.25,128.69,128.69,0,0,0-7.55,10.51,16.91,16.91,0,0,1-1.84,2.18,0.91,0.91,0,0,1-1.31,0c-1.23-1.25-2.43-2.53-3.58-3.85-2-2.29-4-4.6-5.91-6.92-0.62-.73-1.19-1.5-1.75-2.28s-0.75-2-.38-2.2a5.6,5.6,0,0,1,1.78-.53c1.75-.13,3.51-0.11,5.27-0.24a1.81,1.81,0,0,0,1.94-2.18c-0.14-4.15-.31-8.31-0.44-12.46-0.06-1.92,0-3.84-.09-5.75a1.69,1.69,0,0,0-1.79-1.82q-9.11-.14-18.23-0.22c-1.19,0-1.61.51-1.64,1.86,0,2.08,0,4.15-.09,6.23a1,1,0,0,1-1.34.89,37.83,37.83,0,0,1-3.32-1.9q-5-3.36-9.85-6.82a12.14,12.14,0,0,1-1.73-1.63,1,1,0,0,1,0-1.33,5.48,5.48,0,0,1,1.2-1.47c4.1-3.09,7.73-6.7,11.53-10.12a17.42,17.42,0,0,1,1.92-1.41,1,1,0,0,1,1.52.61,19.68,19.68,0,0,1,.3,2.84c0,1.44-.18,2.87-0.19,4.31,0,1.65.69,2.5,2.22,2.51,5.91,0,11.83,0,17.74,0a1.59,1.59,0,0,0,1.65-1.42q0.21-8.39.37-16.78a1.38,1.38,0,0,0-1.56-1.42c-2.56-.11-5.11-0.17-7.67-0.28a1.16,1.16,0,0,1-.93-1.74c3.25-4.75,6.5-9.5,9.8-14.21a9.44,9.44,0,0,1,2-2,1.61,1.61,0,0,1,1.32,0,2.63,2.63,0,0,1,1.06.93q5.12,7.52,10.2,15.08a1.27,1.27,0,0,1-.84,1.86c-1.27.12-2.55,0.13-3.82,0.21a17.77,17.77,0,0,0-2.84.32,2,2,0,0,0-.93,1,1.84,1.84,0,0,0-.16.93c0,5.12,0,10.23,0,15.35,0,1.71.53,2.22,2.36,2.26,3.2,0.06,6.4,0,9.59,0v0.06Z" transform="translate(-1014.67 -319.35)"/></svg>