<svg id="Layer_1" data-name="Layer 1" xmlns="http://www.w3.org/2000/svg" viewBox="0 0 134.32 73.64"><title>arrow-31</title><path d="M623.58,698.75c5.6,0,11.2,0,16.8,0a27.33,27.33,0,0,1,8.52,1.14,16,16,0,0,1,4.71,2.32,9.83,9.83,0,0,1,4.15,9.2,19,19,0,0,1-10.22,15.31,8.47,8.47,0,0,1-1.81.63,1.72,1.72,0,0,1-2.21-1.78,6.6,6.6,0,0,1,3-5.2c0.81-.52,1.69-0.92,2.45-1.49a6.26,6.26,0,0,0-.78-10.48,11.5,11.5,0,0,0-4.52-1.49,89,89,0,0,0-12-.86c-4.79.16-9.59,0.28-14.38,0.41a143.14,143.14,0,0,1-22-1.08c-3-.38-6-0.86-9-1.38a25,25,0,0,1-6.83-2.19,13.88,13.88,0,0,1-5.52-4.5,11.13,11.13,0,0,1-1.8-10,21.49,21.49,0,0,1,5.85-9.2,48.4,48.4,0,0,1,6.85-5.25c0.79-.53,1.53-1.13,2.27-1.73,0.34-.28.27-0.55-0.11-0.78a21.66,21.66,0,0,0-7.23-2.42,70.89,70.89,0,0,0-30.92.58c-3.26.8-6.48,1.8-9,4.26a0.52,0.52,0,0,0-.17.41,1.23,1.23,0,0,0,.51.64,4.33,4.33,0,0,0,1.42.14q4.07-.2,8.14-0.46c1.44-.09,2.87-0.29,4.3-0.3a3.07,3.07,0,0,1,2.7,4.1,4.35,4.35,0,0,1-2.06,2.55,20.33,20.33,0,0,1-4.39,1.87c-7.33,1.72-14.43,4.17-21.61,6.37a20.28,20.28,0,0,1-2.79.65,2.07,2.07,0,0,1-2.43-2.26,17.36,17.36,0,0,1,.35-3.32c0.67-3,1.32-5.93,2.18-8.84,1.58-5.36,3.32-10.68,5-16a8.34,8.34,0,0,1,1.67-3.41,4.42,4.42,0,0,1,1.56-1,2.08,2.08,0,0,1,2.74,1.85,9.79,9.79,0,0,1-.4,2.34c-1.32,4.28-2.68,8.54-4,12.81a2.35,2.35,0,0,0,0,.92,0.35,0.35,0,0,0,.29.12,3.33,3.33,0,0,0,.72-0.61c4.1-5.29,9.62-8.28,16-10a50.8,50.8,0,0,1,11.82-1.84c7.36-.16,14.72-0.23,22,1a30.87,30.87,0,0,1,5.11,1.23,16.74,16.74,0,0,1,3.81,2c2.77,1.86,3.13,4.74,1.84,7.63a13,13,0,0,1-3.9,4.8c-1.37,1.1-2.84,2.07-4.26,3.12s-2.86,2.06-4.19,3.2a17.83,17.83,0,0,0-2.62,2.79,5,5,0,0,0,.31,6.58,13.53,13.53,0,0,0,7.38,4.22c3.43,0.75,6.91,1.3,10.36,2a72.48,72.48,0,0,0,14.33,1c4,0,8,0,12,0v-0.23Z" transform="translate(-523.49 -653.78)"/></svg>