<svg id="Layer_1" data-name="Layer 1" xmlns="http://www.w3.org/2000/svg" viewBox="0 0 134.61 124.49"><title>arrow-20</title><path d="M541.51,433a5.49,5.49,0,0,1,1.49.29,1.92,1.92,0,0,1,.87,1,1.37,1.37,0,0,1-.55,1.67,4,4,0,0,1-1.31.56,38.31,38.31,0,0,0-4.19,1c-0.92.34-2.56-.13-2.63,1.27,0,0.93,1.39,1.15,2.21,1.58a66.59,66.59,0,0,1,10.85,7,58.51,58.51,0,0,1,12.7,14.2,65.64,65.64,0,0,1,8.5,20.75,56.36,56.36,0,0,1-.13,25.21A69.44,69.44,0,0,1,564,521.9a7.26,7.26,0,0,1-1.38,1.92,1.38,1.38,0,0,1-1.76.19,1.55,1.55,0,0,1-.87-1.57,7.77,7.77,0,0,1,.59-1.79c1.14-2.64,2.44-5.21,3.44-7.91A51,51,0,0,0,567,490.14a55.63,55.63,0,0,0-2.77-13.07c-1.3-3.8-2.66-7.53-5.25-10.68a15.84,15.84,0,0,1-1.28-2,54.15,54.15,0,0,0-19.73-19.13c-1.79-1-3.63-2-5.45-3-0.54-.29-1.32-0.14-1.28.2a2.32,2.32,0,0,0,.17.89c0.9,1.51,1.86,3,2.76,4.49a17.45,17.45,0,0,1,1.07,2.13,1.79,1.79,0,0,1-.95,2,1.74,1.74,0,0,1-1.77-.35,1.1,1.1,0,0,1-.33-0.35c-2.45-3.93-4.92-7.85-7.31-11.81a2.14,2.14,0,0,1,.94-2.88c0.14-.08.27-0.18,0.41-0.25C528.83,435.1,537.94,433.1,541.51,433Z" transform="translate(-436.19 -432.99)"/><path d="M444.78,491.71c-0.21-16.22,5.87-30,17.16-41.32,7.83-7.88,17.46-12.8,28.28-15.39a84.17,84.17,0,0,1,11.38-1.6,15.17,15.17,0,0,1,2.86.11,1.8,1.8,0,0,1,1.42,1.68,1.92,1.92,0,0,1-1.48,1.65,17.12,17.12,0,0,1-2.37.24A52,52,0,0,0,489.26,439a55.59,55.59,0,0,0-24.48,13.57,52.5,52.5,0,0,0-12,17.2,53,53,0,0,0-4.08,28.58,3.16,3.16,0,0,0,.29.9,0.52,0.52,0,0,0,.4.09,0.58,0.58,0,0,0,.41-0.16c0.8-1.55,1.57-3.12,2.38-4.67,0.52-1,1.08-1.95,1.66-2.9a1.64,1.64,0,0,1,1.77-.29,1.59,1.59,0,0,1,.85,1.58,4.48,4.48,0,0,1-.31,1.38q-2.7,5.88-5.46,11.74a7.31,7.31,0,0,1-1.11,1.55,2.28,2.28,0,0,1-2.67.25,8.15,8.15,0,0,1-1.43-1.26q-4.27-5.18-8.48-10.41a4.2,4.2,0,0,1-.7-1.25,1.56,1.56,0,0,1,.39-1.74,1.62,1.62,0,0,1,2.17-.07c1.55,1.82,3,3.69,4.59,5.52a1.82,1.82,0,0,0,.8.41,0.4,0.4,0,0,0,.36-0.16,3.34,3.34,0,0,0,.16-0.93C444.79,495.87,444.78,493.79,444.78,491.71Z" transform="translate(-436.19 -432.99)"/><path d="M535.94,537.61c3.8,0,6.36,0,8.91,0a2.12,2.12,0,0,1,1.91,2.33,13.92,13.92,0,0,1-.4,2.35c-0.67,2.46-1.36,4.92-2.1,7.37a36.06,36.06,0,0,1-1.45,4.05,3.15,3.15,0,0,1-1.28,1.33,1.58,1.58,0,0,1-1.33-.07,1.63,1.63,0,0,1-.75-1.1,5.29,5.29,0,0,1,.31-1.85c0.5-1.68,1.07-3.34,1.56-5a1.06,1.06,0,0,0-.19-0.87,0.87,0.87,0,0,0-1.23.05c-0.4.27-.81,0.52-1.2,0.8a61.45,61.45,0,0,1-19.07,8.72c-4.82,1.36-9.77,1.45-14.71,1.71a54.29,54.29,0,0,1-27.73-6.28,55.72,55.72,0,0,1-21.09-18.41,35.93,35.93,0,0,1-2.28-4.2,1.67,1.67,0,0,1,.81-2,1.72,1.72,0,0,1,2.14.48c0.2,0.25.4,0.49,0.58,0.76s0.32,0.55.49,0.83a51.69,51.69,0,0,0,15.94,16.3,55.34,55.34,0,0,0,22.62,8.66,61.24,61.24,0,0,0,13.39.17c8-.53,15.27-3.17,22.28-6.81a51.25,51.25,0,0,0,7.12-4.83,0.72,0.72,0,0,0,.22-0.41,0.45,0.45,0,0,0-.53-0.6c-2.87.08-5.74,0.18-8.62,0.22a11.78,11.78,0,0,1-2.82-.28,2,2,0,0,1-.92-1,1.53,1.53,0,0,1,.71-1.62,6.22,6.22,0,0,1,1.8-.53C531.75,537.71,534.47,537.65,535.94,537.61Z" transform="translate(-436.19 -432.99)"/></svg>