<svg id="Layer_1" data-name="Layer 1" xmlns="http://www.w3.org/2000/svg" viewBox="0 0 79.41 154.13"><title>arrow-38</title><path d="M1536,694.4v17.26c0,8.31.07,16.63,0,24.94-0.06,5.27-.36,10.54-0.63,15.81a33,33,0,0,1-.66,4.26,6.21,6.21,0,0,1-4.6,5,30.11,30.11,0,0,1-7,1.49c-4,.29-8,0.5-12,0.87-4.93.45-9.85,1.09-14.78,1.54-5.25.48-10.52,0.82-15.77,1.22a7,7,0,0,1-1,0,2.14,2.14,0,0,1-2-1.79c-0.06-.79-0.08-1.6-0.07-2.39q0.37-18.23-.32-36.45c-0.28-7.53.08-15,.32-22.53a12,12,0,0,1,.59-4.25,3.91,3.91,0,0,1,1.66-2.27,3.55,3.55,0,0,1,1.82-.25,1.34,1.34,0,0,1,1.1,1.37,10.93,10.93,0,0,1,.07,1.91c-0.65,14.39-.14,28.78.08,43.16,0.06,4.16,0,8.31,0,12.47q0,1.44.07,2.87a1.49,1.49,0,0,0,1.32,1.15c0.16,0,.32,0,0.48,0l18.64-1.42c5.26-.41,10.52-0.85,15.78-1.24a55.17,55.17,0,0,0,8.5-1.45,2.71,2.71,0,0,0,2.38-2.59c0.13-1.59.33-3.19,0.36-4.78,0.11-8.15.48-16.29,0.26-24.45-0.31-11.51-.32-23-0.35-34.53,0-13.91.11-27.82-.56-41.72,0-1-.06-1.92-0.15-2.87a1,1,0,0,0-.43-0.73,0.94,0.94,0,0,0-.85.14,17.43,17.43,0,0,0-1.59,1.78q-5.35,6.78-10.68,13.56c-1,1.25-2,2.52-3,3.71a5.07,5.07,0,0,1-1.58,1,1.66,1.66,0,0,1-2.18-1.26,6.3,6.3,0,0,1,.21-2.34,31.53,31.53,0,0,1,1.82-3.91c6.76-12.7,12.94-25.69,19.27-38.61a31.7,31.7,0,0,1,2.22-3.68,4.33,4.33,0,0,1,2.29-1.65,1.91,1.91,0,0,1,2.15.58,41.43,41.43,0,0,1,2,3.8q8.1,18.17,16.14,36.37a22.12,22.12,0,0,1,1,2.68,4.33,4.33,0,0,1-2.68,5,1.47,1.47,0,0,1-1.74-.44,13.8,13.8,0,0,1-1.4-2.49q-7.39-16.65-14.74-33.32c-0.32-.73-0.68-1.44-1-2.15a0.73,0.73,0,0,0-1.18-.18,9.36,9.36,0,0,0-.84,1.15q-3.75,7.24-7.45,14.5a1,1,0,0,0,0,.84c0.49,0.35.82-.13,1.07-0.44,1.3-1.62,2.52-3.3,3.87-4.88a6.54,6.54,0,0,1,1.91-1.37,1.83,1.83,0,0,1,2.35,1.06,15.58,15.58,0,0,1,.49,4.75q0.23,18,.45,36,0.13,10.07.3,20.14H1536Z" transform="translate(-1477.21 -612.69)"/></svg>