<svg id="Layer_1" data-name="Layer 1" xmlns="http://www.w3.org/2000/svg" viewBox="0 0 163.28 49.97"><title>arrow-12</title><path d="M384.28,350.61c-0.11-1.75-.19-3.51-0.33-5.26a18.85,18.85,0,0,1,.33-5.72,31.77,31.77,0,0,0,.18-10,5.82,5.82,0,0,0-.69-1.76,0.83,0.83,0,0,0-1.23-.3,3.64,3.64,0,0,0-1.18.78,82.84,82.84,0,0,0-11.14,13.14,94.08,94.08,0,0,1-12.66,15.62,76.46,76.46,0,0,1-11.79,9,8.63,8.63,0,0,1-2.66,1,4.15,4.15,0,0,1-4.44-2.11,6.8,6.8,0,0,1-.71-4.66,41.11,41.11,0,0,0,.66-8.11,15.76,15.76,0,0,1,.64-3.76,19.56,19.56,0,0,0-.51-10.87,8.54,8.54,0,0,0-.56-1.32,2,2,0,0,0-2.42-1,16.18,16.18,0,0,0-5.92,4c-1.57,1.81-3.09,3.64-4.5,5.6-3.08,4.28-6.31,8.45-9.52,12.64a9.82,9.82,0,0,1-2.07,2,1.39,1.39,0,0,1-1.28-.14,1.47,1.47,0,0,1-.5-1.21,4.11,4.11,0,0,1,.85-1.67c4.05-5,7.78-10.15,11.46-15.38,2.3-3.26,5-6.28,8.79-8,0.29-.13.59-0.25,0.87-0.4,3-1.56,5.94-.82,7.34,2.86,1.6,4.23,2.31,8.66,1.1,13.17a15.35,15.35,0,0,0-.69,4.24,34,34,0,0,1-.61,7.63,7.07,7.07,0,0,0,.17,2.35,1.59,1.59,0,0,0,1.55.88,9.85,9.85,0,0,0,1.74-.76,64.67,64.67,0,0,0,17.31-15.71c2.12-2.8,4.29-5.57,6.2-8.53a66.36,66.36,0,0,1,4.94-6.48c1.53-1.84,3.23-3.55,4.86-5.3a13.62,13.62,0,0,1,4.12-3.24,3.26,3.26,0,0,1,4.5,1.42,12.69,12.69,0,0,1,1.21,4.1c0.3,3.82.59,7.67-.3,11.46a9,9,0,0,0-.19,3.8c0.71,3.65.42,7.32,0.36,11,0,2.39.14,4.78,0.25,7.18a6.39,6.39,0,0,0,1.33,3.53,1.31,1.31,0,0,0,1.67.32,7.51,7.51,0,0,0,2.15-2.54c3.23-5.33,6.36-10.72,9.69-16q5.88-9.33,12-18.48a32,32,0,0,1,7.57-7.28,11.31,11.31,0,0,1,3-1.47,3.73,3.73,0,0,1,4.8,2,13.72,13.72,0,0,1,1,3.18,21.65,21.65,0,0,1,0,7.63c-0.53,3.15-1,6.32-1.39,9.48a11.08,11.08,0,0,0-.05,2.86c0.48,3.66,1.87,4.94,5.6,5.23a10.11,10.11,0,0,0,2.39,0c5.2-.85,10.34-1.88,14.85-4.88,2.66-1.77,5.41-3.42,8.17-5a29.66,29.66,0,0,0,6.89-5.89,0.94,0.94,0,0,0-.68-1.65c-1.74-.28-3.47-0.55-5.22-0.75-3.33-.38-6.67-0.71-10-1.08a10,10,0,0,1-1.4-.29,1.81,1.81,0,0,1-1.16-1.88,1.57,1.57,0,0,1,1.32-1.22,5.43,5.43,0,0,1,1.42,0q10.24,1.12,20.49,2.28a7,7,0,0,1,1.38.36,2.45,2.45,0,0,1,1.59,2.65,8.38,8.38,0,0,1-.52,1.83q-4.07,8.95-8.19,17.87a14.76,14.76,0,0,1-1.23,2,7.88,7.88,0,0,1-1,1.07,1.84,1.84,0,0,1-2.2,0,1.4,1.4,0,0,1-.39-1.73c1-2,2-4,3-6,1.12-2.3,2.18-4.62,3.22-7a1.45,1.45,0,0,0-.2-0.86,0.43,0.43,0,0,0-.38,0c-4.57,2.92-9.15,5.82-13.69,8.8a17.19,17.19,0,0,1-5.65,2.51c-2.49.58-4.9,1.45-7.37,2.1a17.27,17.27,0,0,1-8.54-.12A7.32,7.32,0,0,1,427,350a14.62,14.62,0,0,1-.78-8c0.39-3,.89-6,1.43-9a16.86,16.86,0,0,0,.07-6.19A7.07,7.07,0,0,0,427,325a1,1,0,0,0-1.23-.45,3.36,3.36,0,0,0-1.3.58c-2.88,2.29-5.71,4.62-7.78,7.74-4.58,6.93-9.29,13.78-13.37,21-2.42,4.32-5.2,8.43-7.83,12.63a11.14,11.14,0,0,1-2.87,3.18,4,4,0,0,1-5.6-.61,8.92,8.92,0,0,1-2.27-4.68,38,38,0,0,1-.69-8.58c0.14-1.75,0-3.51,0-5.27h0.21Z" transform="translate(-312 -320.65)"/></svg>