<svg id="Layer_1" data-name="Layer 1" xmlns="http://www.w3.org/2000/svg" viewBox="0 0 113.32 39.37"><title>arrow-30</title><path d="M377.66,665.67c7.11-.09,13.17-0.22,19.25.07,4.93,0.23,9.89-.11,14.84-0.29,4.47-.16,8.93-0.45,13.4-0.66a1.73,1.73,0,0,1,1.56,2.37,2.85,2.85,0,0,1-1.87,2,10.32,10.32,0,0,1-2.35.39c-6.85.48-13.71,0.89-20.59,0.94-10.39.09-20.77-.24-31.15-0.14-10.23.1-20.46,0.08-30.69,0.13-0.37,0-1-.23-1,0.38a1.86,1.86,0,0,0,1.13.66c8.63,2.43,16.82,6.06,25.16,9.27,0.75,0.29,1.49.59,2.21,0.92a1.78,1.78,0,0,1,1.21,1.85c-0.27,1.42-1.39,2.68-2.43,2.63a6.6,6.6,0,0,1-1.87-.33c-1.66-.58-3.31-1.17-4.93-1.87a215.81,215.81,0,0,0-36-11.6c-2.49-.59-4.95-1.28-7.41-1.95a11.39,11.39,0,0,1-1.78-.67,1.86,1.86,0,0,1-.67-2.49,3.87,3.87,0,0,1,2-2c1-.39,2.11-0.75,3.18-1.07q7.34-2.2,14.7-4.36a163.42,163.42,0,0,0,30.18-12.14,10.92,10.92,0,0,1,1.73-.82,3.32,3.32,0,0,1,1.37-.07c0.39,0,.7,1.11.59,1.69a3.38,3.38,0,0,1-1.48,2.36c-1.22.75-2.48,1.45-3.76,2.11a173.45,173.45,0,0,1-24.8,10.18c-0.91.3-1.83,0.58-2.72,0.92a1.32,1.32,0,0,0-.63.63c-0.15.31,0.1,0.49,0.53,0.51,2.23,0.12,4.47.34,6.7,0.35,12,0,24,0,36,0h0.4Z" transform="translate(-313.49 -646.85)"/></svg>