<svg id="Layer_1" data-name="Layer 1" xmlns="http://www.w3.org/2000/svg" viewBox="0 0 40.95 117.63"><title>arrow-46</title><path d="M1507.51,850.22a7.3,7.3,0,0,1,1.48-4.46,2.78,2.78,0,0,1,3.81-.78,9.79,9.79,0,0,1,1.9,1.44,29.74,29.74,0,0,0,7.84,5.43c6.05,3.25,12.11,6.48,18.13,9.77,2.1,1.15,4.16,2.37,6.18,3.66,1.81,1.16,2.06,2.63.9,4.51a4.86,4.86,0,0,1-.94,1.08,2,2,0,0,1-2.21.44c-0.87-.39-1.68-0.92-2.51-1.39l-24.33-13.41a9.54,9.54,0,0,0-1.32-.55,0.62,0.62,0,0,0-.46,0,1.29,1.29,0,0,0-.37.78c0.71,2.61,1.42,5.23,2.24,7.81,1.83,5.78,3.66,11.57,5.59,17.32a4.47,4.47,0,0,1-1.39,5.16,1.67,1.67,0,0,1-2.79-.39,26.75,26.75,0,0,1-1-2.67c-2.16-6.68-4.28-13.38-6.47-20-0.94-2.88-2-5.71-3-8.58A14.73,14.73,0,0,1,1507.51,850.22Z" transform="translate(-1507.51 -844.53)"/><path d="M1542.14,908a71.22,71.22,0,0,1-3.48,21.2,199.68,199.68,0,0,1-9.24,23.64,79,79,0,0,1-4.25,7.5,5.58,5.58,0,0,1-1.73,1.57,1.51,1.51,0,0,1-1.79-.16,1.41,1.41,0,0,1-.45-1.71,15.39,15.39,0,0,1,1.08-2.13c1-1.81,2.16-3.56,3-5.43a163.38,163.38,0,0,0,10.1-26.37,60.93,60.93,0,0,0-1.48-37.23c-0.9-2.56-2.07-5-3.12-7.52a31.84,31.84,0,0,0-5-8.14c-0.62-.73-1.26-1.45-1.82-2.23a3.28,3.28,0,0,1,.49-4.35,2,2,0,0,1,3-.2,29.93,29.93,0,0,1,5.28,6.8c4.19,8,7.56,16.21,8.68,25.23A60.59,60.59,0,0,1,1542.14,908Z" transform="translate(-1507.51 -844.53)"/></svg>