<svg id="Layer_1" data-name="Layer 1" xmlns="http://www.w3.org/2000/svg" viewBox="0 0 109.66 174.9"><title>arrow-25</title><path d="M770.11,603.54c0,2.56.11,5.12,0,7.67-0.2,3.56-1,7-3.43,9.76-0.74.84-1.42,1.74-2.18,2.56a26,26,0,0,0-4.57,6.72c-0.27.58-.61,1.12-0.91,1.69a7.65,7.65,0,0,1-5.63,4c-7.34,1.6-14.64,3.35-21.94,5.14a55.66,55.66,0,0,0-12,4.69c-4.78,2.45-5,1.91-5.73-3.31-1.1-7.75-2.13-15.52-3.39-23.25a172.68,172.68,0,0,0-10.37-36.36,46.08,46.08,0,0,0-2-4.37,19.77,19.77,0,0,0-4.37-5.68,2.72,2.72,0,0,0-2.64-.75c-2.77.75-5.6,1.35-8.33,2.23-5.48,1.75-10.91,3.66-16.37,5.47-1.36.45-2.75,0.81-4.14,1.18a1.52,1.52,0,0,1-1.41-1,16.73,16.73,0,0,1-.16-2.86q0.62-7.41,1.36-14.8c0.45-4.45,1-8.89,1.48-13.35,0.77-7.47,1.43-15,2.24-22.43,0.59-5.4,1.4-10.78,2-16.18,0.58-4.92,1.13-9.85,1.55-14.78a8.42,8.42,0,0,1,1.77-4.84c4-5,7.95-10,11.91-15,0.4-.5.81-1,1.22-1.48,1.61-1.95,2.62-2.45,4.92-1.15,0.28,0.16.59,0.25,0.88,0.38,17.79,8.36,36,15.77,53.65,24.49,5.44,2.69,11.07,5,16.61,7.48,2.56,1.15,3.28,2.49.69,5.07a32,32,0,0,1-2.59,2.13c-4,3.2-8,6.4-12,9.61-1.43,1.15-1.52,1.65-.77,3.27,2.76,5.94,5.62,11.84,8.27,17.83A237,237,0,0,1,764.29,571,130.37,130.37,0,0,1,770.11,603.54Zm-41.72,17.28,1.74-.62c2.55-.94,5.07-1.95,7.64-2.81a137,137,0,0,1,15.28-4q4.45-.94,8.9-1.94c4-.91,4.1-1,4.18-5A71.93,71.93,0,0,0,765,593a166.23,166.23,0,0,0-5-21,258.13,258.13,0,0,0-17.39-42c-0.73-1.42-1.5-2.82-2.17-4.27-0.88-1.91-.55-3.25,1.11-4.67,1.09-.93,2.27-1.76,3.39-2.67q5-4.07,10-8.16a0.86,0.86,0,0,0-.14-1.52c-3.61-1.71-7.17-3.53-10.85-5.07-9.14-3.82-18.13-8-27.1-12.21q-11.93-5.6-23.89-11.16c-1.3-.61-2.65-1.12-4-1.65a1.19,1.19,0,0,0-1.47.87c-0.23.93-.43,1.86-0.58,2.8-1,6-1.7,12-2.93,18-1.62,7.83-2.76,15.73-4,23.63q-2.21,14.45-4.46,28.89c-0.07.47-.08,1-0.12,1.43a0.92,0.92,0,0,0,1.1,1.12c1.07-.34,2.11-0.74,3.18-1.07,7-2.2,14-4.37,21-6.58a2.41,2.41,0,0,1,2.66.47c2.66,2.76,5.55,5.38,7.24,8.88,3.13,6.47,6.13,13,7.94,20,1.16,4.48,2.34,9,3.38,13.48,2.15,9.34,4.47,18.65,5.3,28.24a4.18,4.18,0,0,0,.35,1.37A2.63,2.63,0,0,0,728.39,620.82Z" transform="translate(-660.49 -472.26)"/></svg>