<svg id="Layer_1" data-name="Layer 1" xmlns="http://www.w3.org/2000/svg" viewBox="0 0 199.05 111.34"><title>arrow-4</title><path d="M766.76,182.35a77.2,77.2,0,0,0-2.34-18.51c-1.1-4.17-2.33-8.31-2.62-12.66a29.27,29.27,0,0,1,1.42-11.82,19.48,19.48,0,0,1,6.86-9.62c3.83-2.77,8-3.86,12.69-2.44a14,14,0,0,1,8.32,6.82,30.65,30.65,0,0,1,2.06,4.85,74.62,74.62,0,0,0,4.62,10.53,46.82,46.82,0,0,0,2.45,4.12,16.72,16.72,0,0,0,2.46,2.93c4.35,4,8.45,4.11,12.87.5a15.14,15.14,0,0,0,5.32-8.34,37.12,37.12,0,0,0,.93-7.12c0.16-3.35.43-6.7,0.64-10.05a18.33,18.33,0,0,1,4.65-11.8,1.7,1.7,0,0,0,0-2.58c-0.93-1.1-1.94-2.13-2.87-3.23-0.72-.85-1.39-1.75-2-2.67a1.6,1.6,0,0,1,.56-2.08,11.14,11.14,0,0,1,2.25-.79c6.14-1.08,12.29-2.12,18.43-3.17l0.48-.05c4.29-.5,5,0.38,3.27,4.38-2.29,5.45-4.57,10.91-6.92,16.34-1.45,3.35-2.77,3.53-5.1.84-1.26-1.45-2.51-2.9-3.79-4.33a1.27,1.27,0,0,0-1.73,0,9.17,9.17,0,0,0-2.79,4.38,23.34,23.34,0,0,0-1.09,6.12c-0.22,3.83-.52,7.66-0.71,11.5a25.51,25.51,0,0,1-1.22,6.59,18.15,18.15,0,0,1-8.21,10.26c-4.44,2.67-8.83,2.41-13.09-.41a19.85,19.85,0,0,1-5.82-6.29,67.7,67.7,0,0,1-5.85-12.07c-0.56-1.5-1-3-1.69-4.49a18.25,18.25,0,0,0-2.1-3.74,10.46,10.46,0,0,0-13.8-2.45,14.85,14.85,0,0,0-4.74,4.68,18.92,18.92,0,0,0-3.08,8.49,31.51,31.51,0,0,0,.56,11c0.55,2.17,1,4.36,1.63,6.51A78,78,0,0,1,770,188.57a32,32,0,0,1-4.54,15,24.1,24.1,0,0,1-10.52,9.51,33.12,33.12,0,0,1-19.15,3,16.32,16.32,0,0,1-13.06-9.38A28.52,28.52,0,0,1,720,195.57a70.1,70.1,0,0,1,1.45-17.65c0.92-4.71,2-9.38,2.83-14.1a33.1,33.1,0,0,0-.28-13.34c-1-4.37-3.61-7.05-8.09-7.72-7.44-1.1-13.93.84-19.25,6.27a33.58,33.58,0,0,0-6.14,9.12,59.44,59.44,0,0,0-3.77,10.35c-1,3.7-1.92,7.43-2.94,11.13-0.55,2-1.19,4-1.91,5.93a26,26,0,0,1-4.85,8.22,17.36,17.36,0,0,1-15.84,6.14,26.23,26.23,0,0,1-10.37-3.49,6.81,6.81,0,0,1-1.47-1.2,1.56,1.56,0,0,1-.21-1.78,1.5,1.5,0,0,1,1.62-.71c1,0.45,2,.95,3,1.44a22,22,0,0,0,10.16,2.45A13.36,13.36,0,0,0,673,193a21.58,21.58,0,0,0,4.54-6.14,41.06,41.06,0,0,0,2.94-8.1c1-3.86,2-7.74,3-11.6a59.2,59.2,0,0,1,5.11-12.91,30.8,30.8,0,0,1,7.07-9c6.53-5.53,14-7.45,22.38-5.45a11.78,11.78,0,0,1,8.55,7.71,20.68,20.68,0,0,1,1.29,6.08,56.6,56.6,0,0,1-1.48,17.14,131.93,131.93,0,0,0-2.9,16,37.33,37.33,0,0,0,.53,13.35,27.09,27.09,0,0,0,1.71,5,13,13,0,0,0,10.83,7.71A30,30,0,0,0,753,210.22a21.59,21.59,0,0,0,10.26-9.71c2.34-4.33,3.15-9,3.48-13.84C766.84,185.24,766.76,183.79,766.76,182.35Z" transform="translate(-648.92 -105.04)"/></svg>