<svg id="Layer_1" data-name="Layer 1" xmlns="http://www.w3.org/2000/svg" viewBox="0 0 163.19 103.39"><title>arrow-6</title><path d="M1281.71,65.78c0-1.44-.07-2.88,0-4.31a2.7,2.7,0,0,1,3.19-2.18,5.5,5.5,0,0,1,1.75.74,99.41,99.41,0,0,1,13.38,10.88c2.92,3,2.83,4.26-.49,7-3.93,3.28-8,6.4-12,9.58a6.83,6.83,0,0,1-1.24.71,1.91,1.91,0,0,1-2.62-1.29c-0.28-1.74-.5-3.48-0.73-5.23-0.06-.48-0.09-1-0.12-1.43-0.19-4.43-.17-4.49-4.63-4.64A62.62,62.62,0,0,0,1254.64,79a51.05,51.05,0,0,0-9.37,4.77c-5.74,3.54-9.86,8.55-13.5,14.07a28.42,28.42,0,0,0-4.3,9.56,1.62,1.62,0,0,0,1.05,1.9,9,9,0,0,0,.9.31c0.47,0.11.94,0.17,1.42,0.25a41.74,41.74,0,0,1,19,8.64c1.37,1.11,2.79,2.14,4.14,3.27a15.24,15.24,0,0,1,4.38,6.2c1.7,4.26.64,7.5-3.14,9.91s-7.88,2.48-12,1.7a18.13,18.13,0,0,1-9.26-4.76,32.82,32.82,0,0,1-9.7-16.77c-0.07-.31-0.1-0.63-0.16-0.95-1-4.95-.37-5-6.27-4.74-12.82.65-22.91,6.31-30.15,17a13.14,13.14,0,0,0-.89,1.69,1.06,1.06,0,0,0,.41,1.26,2.64,2.64,0,0,0,.76.57c4,1.85,7.05,4.92,10.24,7.83a20.22,20.22,0,0,1,4.28,5.73,10,10,0,0,1,1.13,4.13c0.25,4.47-1.62,7.77-5.69,9.63-3.1,1.41-6.28,2.29-9.74,1a12.67,12.67,0,0,1-5.76-4.13,17.28,17.28,0,0,1-3.79-13.92c0.47-2.83,1.25-5.61,1.88-8.42a1.22,1.22,0,0,0-.81-1.5,14.18,14.18,0,0,0-2.76-.78c-5.94-.63-11.41.37-16.17,4.35a56.88,56.88,0,0,0-12.44,14.49c-1.64,2.74-3.14,5.57-4.7,8.36a5.51,5.51,0,0,1-3.06,2.88,1,1,0,0,1-1.26-.37,1.88,1.88,0,0,1-.32-0.87,1.94,1.94,0,0,1,.23-0.92c3.75-7.44,7.8-14.69,13.37-21a41.54,41.54,0,0,1,8.71-7.47,21.27,21.27,0,0,1,7.12-2.73,25.53,25.53,0,0,1,12.34.38,2.23,2.23,0,0,0,2.85-1,40.46,40.46,0,0,1,8-9.48,43.45,43.45,0,0,1,19-9.68,41.58,41.58,0,0,1,8.12-.65c1.12,0,2.24,0,3.36,0a1.87,1.87,0,0,0,1.73-1.42c0.21-.6.28-1.25,0.46-1.86a23.48,23.48,0,0,1,2.83-6.59c2.29-3.46,4.73-6.83,7.13-10.22a8.84,8.84,0,0,1,1.27-1.44c5.24-4.75,10.83-9,17.61-11.35a58.35,58.35,0,0,1,17.8-3.5c2.88-.08,5.75-0.26,8.62-0.44,1.75-.11,2.32-0.7,2.34-2.33,0-.32,0-0.64,0-1,0-1-.09-1.92-0.13-2.88h-0.07Zm-34.88,70.89a13.85,13.85,0,0,0,5.17-.92,7.21,7.21,0,0,0,2.05-1.2,4,4,0,0,0,1.26-4.72,11.78,11.78,0,0,0-4.13-5.74c-1-.76-2.12-1.44-3.08-2.28-5.46-4.8-12-7.19-19-8.44a1.93,1.93,0,0,0-.94,0,1.07,1.07,0,0,0-.67.57,15.1,15.1,0,0,0,.16,3.31c1.39,6.51,5,11.68,9.94,16A15,15,0,0,0,1246.83,136.67Zm-64.66,9.52c-0.38,2.91,1,5.6,2.7,8.15a7.6,7.6,0,0,0,8.28,3.47,13.88,13.88,0,0,0,3.6-1.23,5.45,5.45,0,0,0,2.74-7.26,17.51,17.51,0,0,0-3.71-5.53,40.86,40.86,0,0,0-9.73-7.68c-0.14-.08-0.3-0.12-0.44-0.19a1,1,0,0,0-1.51.64A26.36,26.36,0,0,0,1182.17,146.18Z" transform="translate(-1138.96 -59.22)"/></svg>