<svg id="Layer_1" data-name="Layer 1" xmlns="http://www.w3.org/2000/svg" viewBox="0 0 161.8 47.59"><title>arrow-24</title><path d="M302.83,555.22c-1.44.17-3,.37-4.61,0.55l-21.43,2.38c-3.65.4-7.31,0.73-11,1.17-9.83,1.19-19.67,2.25-29.56,2.91-7.64.51-15.29,1.16-22.88,2.29-3.94.59-7.93,0.88-11.91,1.25a29.66,29.66,0,0,1-3.82.08,1.27,1.27,0,0,1-1.41-1,1.89,1.89,0,0,1,.52-1.75,4.39,4.39,0,0,1,1.58-1,5.88,5.88,0,0,1,1.89-.21c4.82,0,9.53-1,14.3-1.44,2.38-.21,4.76-0.47,7.14-0.73,3.81-.42,7.61-0.86,11.42-1.29,1.11-.13,2.22-0.31,3.34-0.33,5.61-.13,11.11-1.17,16.67-1.72,4.45-.44,8.91-0.74,13.37-1.13,4.93-.43,9.87-0.8,14.79-1.36,7.3-.83,14.58-1.8,21.87-2.72,1-.13,1.42-0.73,1.06-1.6s-0.61-1.48-1-2.19c-0.94-1.85-1.93-3.68-2.86-5.53-0.71-1.43-1.37-2.88-2-4.33a7.75,7.75,0,0,1-.56-3.76,3.35,3.35,0,0,1,3.55-3.14,15.93,15.93,0,0,1,2.8.65c7.17,2.2,14.42,4.19,21.48,6.71,8.58,3.06,17.36,5.47,26,8.34,2,0.65,3.87,1.48,5.77,2.29a1.57,1.57,0,0,1,.4,2.12,4.67,4.67,0,0,1-.87,1.12,8.18,8.18,0,0,1-1.65,1q-18.52,8.46-37,16.9-7.85,3.57-15.73,7.06a38.3,38.3,0,0,1-4.06,1.4,1.4,1.4,0,0,1-1.54-1.39,6,6,0,0,1,.33-1.39c0.73-1.6,1.55-3.16,2.27-4.76q3-6.77,6-13.57c0.57-1.3.23-1.83-1.08-1.83h-1.59Zm7.78-1.84a15.33,15.33,0,0,1-.64,1.79c-1,2-2.1,3.93-3,6-1.47,3.18-2.84,6.41-4.24,9.62a4.77,4.77,0,0,0-.43,1.34,0.82,0.82,0,0,0,.58.52,42.41,42.41,0,0,0,8.77-3.72c2.28-1.13,4.53-2.35,6.84-3.42,9.7-4.47,19.41-8.89,29.12-13.34a4.64,4.64,0,0,0,1.19-.75,0.83,0.83,0,0,0,.07-0.72,15.22,15.22,0,0,0-2.18-1c-7.7-2.58-15.4-5.17-23.12-7.7-5-1.64-10-3.17-15-4.75-1.22-.38-2.43-0.78-3.65-1.12a1.41,1.41,0,0,0-1.72.37,1.73,1.73,0,0,0,0,1.35c0.53,1.33,1.14,2.63,1.78,3.92,1.62,3.29,3.28,6.56,4.92,9.84C310.1,552.14,310.33,552.73,310.61,553.38Z" transform="translate(-196.21 -530.58)"/></svg>