<svg id="Layer_1" data-name="Layer 1" xmlns="http://www.w3.org/2000/svg" viewBox="0 0 79.57 187.11"><title>arrow-37</title><path d="M1346.62,825.63c-0.51,4.36-1,9.13-1.62,13.89-1.07,8.57-2.19,17.13-3.27,25.69a9.82,9.82,0,0,0,.06,1.89,0.48,0.48,0,0,0,.34.17,0.59,0.59,0,0,0,.44-0.08,23.53,23.53,0,0,0,1.9-2.73,36.9,36.9,0,0,1,6-8.08,72.89,72.89,0,0,0,7.41-9.42c7.63-11.27,16.08-21.93,24.3-32.76,1.25-1.65,2.71-3.16,4.05-4.74a70,70,0,0,0,5.84-7c4.53-7,10.12-13.19,14.91-20a7.76,7.76,0,0,0,.74-1.22,0.9,0.9,0,0,0-.22-1.27,15.74,15.74,0,0,0-2.13-1.08c-2.67-1.08-5.34-2.14-8-3.15a68.85,68.85,0,0,1-12.18-5.6,6.77,6.77,0,0,0-1.27-.68c-5.44-1.91-10.52-4.66-15.84-6.86-4.58-1.9-9.08-4-13.46-6.3a57.47,57.47,0,0,0-9.63-4.28,16.85,16.85,0,0,1-2.64-1.13,2.33,2.33,0,0,1-.7-3.34,18.19,18.19,0,0,1,1.92-2.13,92.65,92.65,0,0,0,11.38-13,95.32,95.32,0,0,1,7.35-8.22c3.47-3.76,7-7.48,10.45-11.26a32.2,32.2,0,0,0,3-3.73c3.24-4.82,7.46-8.76,11.51-12.84a11.84,11.84,0,0,1,1.5-1.17,1.24,1.24,0,0,1,1.68.31,1.86,1.86,0,0,1,0,1.33,26.82,26.82,0,0,1-2.44,2.94,103.53,103.53,0,0,0-10.41,12.52,115.05,115.05,0,0,1-11.19,13.15,102.06,102.06,0,0,0-10.64,13,78.29,78.29,0,0,1-5.17,6.3c-0.61.74-1.25,1.45-1.86,2.19a1,1,0,0,0,.32,1.24c6.1,2.79,12.19,5.6,18.31,8.34,3.06,1.37,6.18,2.61,9.28,3.92,0.88,0.37,1.73.84,2.63,1.16a77.19,77.19,0,0,1,13.08,5.94,21.57,21.57,0,0,0,3.54,1.47c5.74,2.07,11,5,16.43,7.85a8.2,8.2,0,0,1,1.53,1.14,2.12,2.12,0,0,1,.4,2.23,21.78,21.78,0,0,1-1.52,2.43c-3.55,4.73-7.14,9.44-10.7,14.16a32.59,32.59,0,0,0-2.24,3.11,97.85,97.85,0,0,1-9.74,13.07c-1.94,2.33-3.88,4.68-5.67,7.14-7.51,10.36-15.22,20.57-22.38,31.19a87.33,87.33,0,0,1-6.8,8.68,60,60,0,0,0-6.13,8c-0.75,1.22-1.69,2.32-2.53,3.49a0.6,0.6,0,0,0-.12.45c0.13,0.39.39,0.42,0.76,0.24,2.87-1.4,5.86-2.6,8.61-4.21,4-2.34,8.15-4.43,12.36-6.36,3.35-1.54,6.54-3.36,9.74-5.16,4.32-2.43,8.76-4.63,13.16-6.91a9.65,9.65,0,0,1,1.79-.66,2.21,2.21,0,0,1,2.35,1.26,2.15,2.15,0,0,1-.61,2.58,23.5,23.5,0,0,1-2.46,1.47c-2.7,1.4-5.48,2.64-8.1,4.17-6.63,3.88-13.66,7-20.38,10.69-7.72,4.24-15.83,7.67-23.52,11.94a18.71,18.71,0,0,1-2.17,1,2.3,2.3,0,0,1-3-1.63,10.26,10.26,0,0,1-.12-2.38c0.2-2.39.32-4.8,0.75-7.15,1.43-7.88,1.8-15.88,2.9-23.8,1-7.12,1.4-14.33,3-21.37a38.79,38.79,0,0,1,1.31-4.59,2.09,2.09,0,0,1,2.88-.81,2,2,0,0,1,1,1.54C1346.68,823,1346.62,824.1,1346.62,825.63Z" transform="translate(-1334.75 -695.09)"/></svg>