<svg id="Layer_1" data-name="Layer 1" xmlns="http://www.w3.org/2000/svg" viewBox="0 0 237.2 27.97"><title>arrow-19</title><path d="M171.76,456.61c-2.43.08-6.58,0.22-10.73,0.33-8,.2-16,0.3-24,0.58-11,.38-22,0.91-33.05,1.34q-11.26.44-22.52,0.77a3.75,3.75,0,0,1-1.81-.45,1.55,1.55,0,0,1-.66-1.13,1.59,1.59,0,0,1,.52-1.23,3.63,3.63,0,0,1,1.77-.61c6.06-.33,12.13-0.68,18.19-0.9,15.33-.56,30.66-1.12,46-1.56,10.38-.3,20.77-0.41,31.16-0.55q10.79-.15,21.58-0.15c14.87,0,29.74-.13,44.59.22,12.13,0.29,24.28.7,36.38,1.84,1.75,0.16,3.49.44,5.23,0.63a1.5,1.5,0,0,0,1.8-1.68c0.07-2.4.08-4.79,0.14-7.19a13.2,13.2,0,0,1,.19-1.89,1.89,1.89,0,0,1,1.82-1.29,10.32,10.32,0,0,1,2.29.6c3.37,1.47,6.73,3,10,4.52,4.33,2,8.63,4.15,12.93,6.26a14.06,14.06,0,0,1,2,1.24,2,2,0,0,1,.06,2.61,8.41,8.41,0,0,1-1.58,1.06c-6.05,2.89-12.12,5.75-18.18,8.62-1.44.68-2.84,1.45-4.3,2.1a17.58,17.58,0,0,1-2.72.89,1.89,1.89,0,0,1-2.23-1.35,39,39,0,0,1-.42-4.27c-0.07-1.75,0-3.51-.07-5.26a1.32,1.32,0,0,0-1.18-1.3c-2.85-.37-5.69-0.87-8.56-1-7.34-.45-14.69-0.68-22-1.13-16.93-1-33.87-.76-50.81-0.86C193.63,456.35,183.56,456.53,171.76,456.61Zm126.9,3.14c0-.68.09-1.21-0.44-1.35a1.15,1.15,0,0,0-.82.37c-2.27,2.12-4,4.82-7.05,6.11a1.59,1.59,0,0,0-.26,1.74,0.88,0.88,0,0,0,1.25.19c1.58-.7,3.15-1.43,4.73-2.12a3.08,3.08,0,0,0,2-2.43C298.23,461.34,298.5,460.43,298.67,459.74Zm7.72-3.52a0.93,0.93,0,0,0-.2-0.39,17.31,17.31,0,0,0-2-1.08,0.86,0.86,0,0,0-.78.31,7.88,7.88,0,0,0-.75,4,0.5,0.5,0,0,0,.27.34,0.53,0.53,0,0,0,.45,0c1-.77,1.92-1.55,2.84-2.38A1.77,1.77,0,0,0,306.39,456.22Zm-11.47-2.54a4,4,0,0,0-.2.83,1.4,1.4,0,0,0,.19.84,0.83,0.83,0,0,0,.81-0.11c0.85-.89,1.66-1.82,2.46-2.76,0.25-.29.1-0.56-0.2-0.81-1.38-1.14-2.38-.94-2.75.57C295.07,452.84,295,453.45,294.92,453.68Zm-5.17-1c0.08,0.48.2,1.23,0.36,2a0.56,0.56,0,0,0,.31.3,0.62,0.62,0,0,0,.39,0c0.49-1.8,1.3-3.55,1.05-5.49a1.26,1.26,0,0,0-.63-0.59,0.52,0.52,0,0,0-.79.28C289.81,450.15,290,451.29,289.75,452.65Z" transform="translate(-79.02 -443.7)"/></svg>