<svg id="Layer_1" data-name="Layer 1" xmlns="http://www.w3.org/2000/svg" viewBox="0 0 63.68 173.34"><title>arrow-28</title><path d="M1282.83,643.1c0-3.19,0-6.39,0-9.59q-0.06-17.49-.13-35c0-1.44,0-2.88.12-4.31a72.36,72.36,0,0,0,0-8.14c-0.11-2.87.07-5.74,0.22-8.61a6.7,6.7,0,0,1,.66-2.26,1.48,1.48,0,0,1,1.6-.8,1.64,1.64,0,0,1,1.42,1.12,4.61,4.61,0,0,1,.27,1.4c0,0.8,0,1.6,0,2.39-0.12,6.53,1,13.05.23,19.59a104,104,0,0,1,.25,18.19,6.64,6.64,0,0,0,0,1c0.66,7.5-.06,15,0.18,22.51,0.27,8.31.18,16.61,0,24.92-0.06,2.39-.22,4.79-0.26,7.18,0,2.07,0,4.15.09,6.21a31,31,0,0,1-.08,7.17,27.45,27.45,0,0,0-.12,7.64,34.47,34.47,0,0,1,0,6.69c-0.23,2.86-.3,5.74-0.45,8.61a4.27,4.27,0,0,1-.7,2.73,1.63,1.63,0,0,1-1.17.57,1.71,1.71,0,0,1-1.06-.78,3.05,3.05,0,0,1-.38-1.37c-0.19-2.39-.42-4.77-0.5-7.16-0.13-3.83-.15-7.66-0.22-11.49,0-.64,0-1.28,0-1.92,0.24-13.58.06-27.15,0.23-40.73,0-1.92,0-3.83,0-5.75h-0.09Z" transform="translate(-1246.37 -538.96)"/><path d="M1274.58,615.89c0,6.71,0,13.42,0,20.14,0,2.23.11,4.47,0.22,6.7a93.54,93.54,0,0,1-.15,14.83,58.6,58.6,0,0,0,.12,13.4,33,33,0,0,1,.12,7.17c-0.14,1.43-.22,2.87-0.22,4.3,0,6.55,0,13.1,0,19.65a12.14,12.14,0,0,1-.29,2.35,2.2,2.2,0,0,1-1.87,1.28,2.37,2.37,0,0,1-1.91-1.24,3.4,3.4,0,0,1-.28-0.91c-0.2-3.35-.61-6.67-0.51-10,0.2-6.55.3-13.1,0.26-19.65,0-4-.41-8-0.58-12a18,18,0,0,1,.1-3.83c1-5.57.44-11.15,0.32-16.73-0.1-4.63.15-9.26,0.13-13.89,0-7.51-.15-15-0.22-22.52,0-1.28-.06-2.56,0-3.83q0.26-9.58.57-19.16c0.07-2.08.12-4.16,0.31-6.22a8.8,8.8,0,0,1,.78-2.73,1.73,1.73,0,0,1,1.21-.53,1,1,0,0,1,.77.47,7.52,7.52,0,0,1,.79,2.24c0.23,2.06.41,4.14,0.43,6.21,0,4-.07,8-0.08,12,0,7.51,0,15,0,22.53h0Z" transform="translate(-1246.37 -538.96)"/><path d="M1277.67,546.78c0.07,0-.1,0-0.19.11a22.14,22.14,0,0,0-1.76,2.25q-4.27,6.93-8.48,13.91c-1.4,2.33-2.7,4.72-4.15,7q-6,9.51-12.19,19a11.17,11.17,0,0,1-1.85,2.15,1.44,1.44,0,0,1-1.78,0,1.57,1.57,0,0,1-.86-1.58,7.1,7.1,0,0,1,.8-2.21c2.8-4.66,5.58-9.33,8.49-13.92a156.21,156.21,0,0,0,8.28-14,19.13,19.13,0,0,1,1.18-2.09q5.44-8.18,10.16-16.8a5.85,5.85,0,0,1,.57-0.77,2.34,2.34,0,0,1,3.41-.19,9,9,0,0,1,1.26,1.43c4.41,6.47,9.35,12.57,13.41,19.29a16.94,16.94,0,0,0,2,2.69,28.48,28.48,0,0,1,3.89,5.45,12.91,12.91,0,0,0,1.58,2.4c3,3.35,5,7.45,7.64,11A6.71,6.71,0,0,1,1310,584a1.52,1.52,0,0,1-.7,1.66,1.75,1.75,0,0,1-1.82.09,2.56,2.56,0,0,1-.77-0.54,20.36,20.36,0,0,1-1.53-1.84q-5-7-10-14.06a11.92,11.92,0,0,0-1.12-1.56c-3.07-3.1-5.1-6.95-7.6-10.45s-4.91-6.7-7.4-10A1.14,1.14,0,0,0,1277.67,546.78Z" transform="translate(-1246.37 -538.96)"/></svg>