<svg id="Layer_1" data-name="Layer 1" xmlns="http://www.w3.org/2000/svg" viewBox="0 0 165.46 130.44"><title>arrow-1</title><path fill="green" d="M139.54,50.15c0.58,0.9,1.6,1,2.48,1.3q13.26,4.13,26.55,8.2l36.19,11.11c2,0.61,4,1.12,6,1.75a3.34,3.34,0,0,1,2.41,2.74,25,25,0,0,1,.28,3.81c0,4.64,0,9.27,0,13.91,0,2.4.14,4.79,0.31,7.18a11.38,11.38,0,0,1-2.72,8.43c-1.83,2.21-3.52,4.55-5.16,6.91a28.19,28.19,0,0,0-2.32,4.17,18.81,18.81,0,0,1-3.63,5.57,40.63,40.63,0,0,0-4.11,5.28c-2,2.87-4,5.8-6,8.7q-5.16,7.51-10.34,15a18.12,18.12,0,0,1-2.09,2.61,3.29,3.29,0,0,1-5-.6,21.06,21.06,0,0,1-1.51-3c-1.42-3.21-2.8-6.45-4.22-9.66-0.89-2-1.53-2.37-3.77-1.94a38.57,38.57,0,0,0-5.1,1.29,237.38,237.38,0,0,0-32.25,13.48c-12.7,6.47-24.92,13.71-36.95,21.32-1.21.77-2.43,1.54-3.7,2.21a5.1,5.1,0,0,1-6.19-.92,23.5,23.5,0,0,1-2.51-2.89q-9.43-11.8-18.84-23.62c-1.6-2-3.27-3.93-4.91-5.89A9.08,9.08,0,0,1,50,140.52a8.9,8.9,0,0,0-1.64-5.89V118.31a3,3,0,0,0,1.57-2.78,7.71,7.71,0,0,1,2.8-5.38c2.09-2,4.18-4,6.41-5.76,7.77-6.27,16.69-10.61,25.59-15,2.58-1.26,5.28-2.27,7.88-3.49,7.24-3.39,14.73-6.18,22.23-8.89,8.11-2.92,16.24-5.82,24.57-8.06,0.77-.21,1.52-0.5,2.27-0.76a1.17,1.17,0,0,0,.77-1.84c-1.33-2.18-2.71-4.33-4.07-6.49-1.11-1.76-2.24-3.49-3.32-5.27a3.17,3.17,0,0,1,0-3.21c0.21-.43.45-0.84,0.67-1.26h3.84Zm3.22,6.25a2.2,2.2,0,0,0-.51.46,0.59,0.59,0,0,0,0,.47c0.91,1.5,1.87,3,2.76,4.49s2,3.3,2.81,5c1.22,2.49.6,4-1.9,4.86-0.45.16-.9,0.33-1.36,0.47-7.21,2.1-14.36,4.38-21.48,6.77-7.59,2.54-15,5.55-22.44,8.42-3.87,1.49-7.56,3.47-11.4,5a153.63,153.63,0,0,0-19.58,10.12,66.58,66.58,0,0,0-12.56,9.58c-1.08,1.05-1.21,1.71-.4,3,1,1.61,2.15,3.17,3.32,4.68q6.77,8.71,13.59,17.38l7.4,9.43a1.59,1.59,0,0,0,2.46.45c1.88-1.21,3.7-2.52,5.6-3.7a432.74,432.74,0,0,1,40.63-22.62c9.51-4.56,19.16-8.85,29.47-11.38,2-.49,4.06-0.89,6.09-1.28a3.46,3.46,0,0,1,3.7,1.66,20.79,20.79,0,0,1,1.5,3c1,2.18,1.88,4.41,2.93,6.56,0.55,1.13.83,2.45,1.93,3.26,1.47-.31,1.61-1.79,2.32-2.73,2.4-3.19,4.69-6.47,7-9.75q5.2-7.48,10.32-15,5.42-7.92,10.81-15.86c0.44-.65.79-1.38,1.17-2.07a0.51,0.51,0,0,0-.29-0.79c-0.88-.36-1.75-0.76-2.66-1q-17.41-5.36-34.83-10.69c-7.18-2.21-14.34-4.47-21.51-6.7C146,57.32,144.3,56.85,142.76,56.4Zm56.08,45.91c0-.79,0-1.59,0-2.38a0.88,0.88,0,0,0-.46-0.66,1,1,0,0,0-.84.25,4.34,4.34,0,0,0-1.27,2.49c-0.45,2.82-.88,5.65-1.48,8.44-1.27,5.9-2.65,11.77-4,17.66a1.13,1.13,0,0,0,.35.63,0.77,0.77,0,0,0,.4-0.21c1.67-2.13,3.22-4.3,3.69-7.09,0.26-1.56.88-3,1.26-4.59C197.68,112.06,198.83,107.27,198.84,102.31ZM85.08,169.41a24.35,24.35,0,0,0,.22,2.9,3.09,3.09,0,0,0,.85,1.05,5.88,5.88,0,0,0,1-1,5.18,5.18,0,0,0,.45-1.35,202,202,0,0,0,3.85-21.13,4.66,4.66,0,0,0-.11-1.4,0.49,0.49,0,0,0-.73-0.37A3.89,3.89,0,0,0,87.75,151,144.92,144.92,0,0,0,85.08,169.41Zm56.37-34.87c0,2.85,0,5.39,0,7.93a0.44,0.44,0,0,0,.26.33,0.5,0.5,0,0,0,.44-0.12,18.45,18.45,0,0,0,1.06-2.62,112.61,112.61,0,0,0,3-16.91c0.13-1.26.21-2.53,0.24-3.79a0.86,0.86,0,0,0-.63-0.55c-2,.12-3.16,1.1-3.29,2.71C142.14,125.95,141.79,130.39,141.46,134.54ZM132,139.9h0.21c0.19-2.68.39-5.36,0.55-8a1.13,1.13,0,0,0-.27-0.81,1,1,0,0,0-1,.85c-1.77,5.59-2.68,11.38-4,17.08a1,1,0,0,0,1,.73c2.21-.68,2.85-1.44,3-3.64C131.75,144,131.87,142,132,139.9Zm22-9.47c0.11-2.6.21-4.82,0.31-7,0-.32.07-0.63,0.09-0.95s-0.12-.63-0.4-0.53a0.56,0.56,0,0,0-.32.32q-2.09,8.77-4.15,17.55a0.87,0.87,0,0,0,1,.71c2.52-.49,3.08-1,3.2-3.31S153.93,132.43,154,130.44Zm20.94,15.5c0,0.91,0,2.18,0,3.45a0.5,0.5,0,0,0,.24.39,0.44,0.44,0,0,0,.39-0.2q2-9.3,3.94-18.6a2.56,2.56,0,0,0,0-.92c-0.07-.42-0.31-0.47-0.71-0.37a3.19,3.19,0,0,0-2.45,3.11Zm-73.67,16.33a6.83,6.83,0,0,0,.1.8,2.93,2.93,0,0,0,.2.43,1.59,1.59,0,0,0,.73-0.38c0.38-1.7.76-3.4,1-5.12,0.56-3.94,1.57-7.82,1.63-11.83a1.26,1.26,0,0,0-.17-0.43,1.32,1.32,0,0,0-.56.39c-0.66,3.12-1.32,6.23-1.9,9.37C101.89,157.86,101.59,160.23,101.28,162.28Zm63-32.39c0-.95,0-2.05,0-3.16a6.77,6.77,0,0,0-.13-0.89,2.7,2.7,0,0,0-.51.74c-0.84,3.2-1.67,6.41-2.46,9.63a0.86,0.86,0,0,0,.42.73,2,2,0,0,0,1.32-.08,1.78,1.78,0,0,0,.73-1.14C163.86,133.83,164,131.94,164.23,129.88Zm-7.29-10H157c0,1.41,0,2.83,0,4.24a1,1,0,0,0,.18.38,0.9,0.9,0,0,0,.38-0.26q1.17-4.57,2.29-9.14a0.57,0.57,0,0,0,0-.46,1.31,1.31,0,0,0-.72-0.46c-1.41.07-2.14,0.73-2.16,1.92S156.95,118.62,156.95,119.88Zm-18.35,21.38c0-2,0-3.3,0-4.58a0.6,0.6,0,0,0-.23-0.41,0.41,0.41,0,0,0-.35.14q-1.05,4.16-2.06,8.32a1.74,1.74,0,0,0,0,.47,1,1,0,0,0,1.19.48,1.88,1.88,0,0,0,1.23-1.35C138.51,143.07,138.56,141.79,138.59,141.26Zm-2.83-13.7h0.06c0,1.1,0,2.2,0,3.3a0.3,0.3,0,1,0,.59.09c0.29-.9.61-1.8,0.81-2.72,0.38-1.69.7-3.39,1-5.09a1,1,0,0,0-1.06-.64,1.61,1.61,0,0,0-1.23,1.27C135.86,125,135.83,126.3,135.77,127.56Zm68.3-32.69a6.61,6.61,0,0,0,0,1.06,2.76,2.76,0,0,0,.32.67,1.55,1.55,0,0,0,.32-0.34,20.21,20.21,0,0,0,1.66-7.89,0.68,0.68,0,0,0-.18-0.42,0.46,0.46,0,0,0-.34-0.15,0.55,0.55,0,0,0-.4.2C204.49,90.22,204.51,92.64,204.06,94.87ZM98.93,158.26s0-.45,0-0.92a7.61,7.61,0,0,0-.12-0.93,2.29,2.29,0,0,0-.39.62q-1,4.13-1.88,8.28a2.17,2.17,0,0,0,.12.91,0.83,0.83,0,0,0,.24.38,2.09,2.09,0,0,0,.78-0.44,1.67,1.67,0,0,0,.36-0.84C98.35,163.12,98.61,160.93,98.93,158.26Zm-17.32.06h0.08c-0.07.94-.16,1.87-0.19,2.81a1.52,1.52,0,0,0,.32.6,1.29,1.29,0,0,0,.32-0.34,21.13,21.13,0,0,0,1.52-6.33,0.83,0.83,0,0,0-.82-0.9,0.8,0.8,0,0,0-.86.88C81.8,156.13,81.72,157.23,81.6,158.32Zm126-57.06c-0.12.66-.3,1.6-0.47,2.54-0.1.56,0.29,1.17,0.6,1a1.25,1.25,0,0,0,.63-0.62,25.88,25.88,0,0,0,.27-3.32c0-1.26.27-2.55-.24-3.77-0.85,1-.42,2.3-0.7,3.43C207.69,100.65,207.69,100.81,207.64,101.26Zm-93.8,38.37a12.1,12.1,0,0,0,0,1.43,2.78,2.78,0,0,0,.28.65,1.36,1.36,0,0,0,.25-0.38c0.48-2.12,1-4.25,1.4-6.38a1.14,1.14,0,0,0-.52-0.54,0.47,0.47,0,0,0-.35.22C114.5,136.45,114.12,138.28,113.83,139.63ZM54.11,123.1c0,1.71,0,2.33,0,3a1.1,1.1,0,0,0,.22.4A1.7,1.7,0,0,0,55,126a18.31,18.31,0,0,0,.9-2.63,3.63,3.63,0,0,0-.16-1.36,1.05,1.05,0,0,0-1-.77,1.35,1.35,0,0,0-.48.64A7.69,7.69,0,0,0,54.11,123.1Zm24.7,45.12c0-1.06,0-1.7,0-2.33a1.89,1.89,0,0,0-.28-0.61,1.46,1.46,0,0,0-.24.39c-0.33,1.37-1.23,2.62-.85,4.12a1.25,1.25,0,0,0,.67.49,0.42,0.42,0,0,0,.37-0.16C78.63,169.35,78.75,168.57,78.81,168.22ZM61.9,137.55a6.67,6.67,0,0,0,.24,1.28c0.57,0,.49-0.52.61-0.86a12.12,12.12,0,0,0,1-4.63,2.07,2.07,0,0,0-.43-0.76,2,2,0,0,0-.6.68C62.36,134.81,62.11,136.37,61.9,137.55Zm105-15.74c0,0.62,0,.93,0,1.25a0.35,0.35,0,0,0,.18.25c0.64,0-.11.14,0.18-0.42a5,5,0,0,0,.87-3.13,1.38,1.38,0,0,0-.22-0.4,1.47,1.47,0,0,0-.59.44C167.08,120.54,167,121.32,166.86,121.8ZM67.32,154.15a5,5,0,0,0,0-.7,6.49,6.49,0,0,0-.19-0.82,4.66,4.66,0,0,0-.4.79c-0.18.61-.32,1.23-0.44,1.86a0.47,0.47,0,0,0,.18.39,0.41,0.41,0,0,0,.66-0.32C67.21,155,67.23,154.72,67.32,154.15Z" transform="translate(-48.34 -50.15)"/></svg>
