<svg id="Layer_1" data-name="Layer 1" xmlns="http://www.w3.org/2000/svg" viewBox="0 0 87.38 144.73"><title>arrow-9</title><path d="M498.28,241.46a113.57,113.57,0,0,0-.53-17.81c0-.16,0-0.32,0-0.48q-0.55-11.74-1.1-23.48-0.56-12.22-1.12-24.44c0-.8-0.17-1.6-0.12-2.4,0.4-7.23-.81-14.35-1.32-21.52-0.17-2.39-.26-4.79-0.36-7.19-0.16-4,0-8-.82-12a7.25,7.25,0,0,1,.13-2.36,2,2,0,0,1,1.75-1.4,1.91,1.91,0,0,1,1.8,1.3,61,61,0,0,1,1.06,7.58c0.2,6.56.52,13.11,1.11,19.64,0.12,1.27.15,2.56,0.38,3.82a40.33,40.33,0,0,1,.47,8.13,44.87,44.87,0,0,0,.1,5.75c0.84,7.81.77,15.65,1.08,23.48,0.12,3.2.31,6.39,0.47,9.59,0,0.48.08,1,.11,1.44,0.38,7.51.8,15,1.11,22.52,0.13,3,0,6.08,0,9.11,0.09,4.64.24,9.27,0.4,13.9a1.77,1.77,0,0,0,1.77,1.88,42.68,42.68,0,0,0,6.7-.05c5.12-.71,10.22-0.37,15.33-0.14a44.44,44.44,0,0,0,7.17-.26,66.32,66.32,0,0,1,7.66-.3,128.08,128.08,0,0,1,15.82.54c2.29,0.28,2.76-.24,2.68-2.71-0.06-1.92-.2-3.83-0.28-5.75a10.89,10.89,0,0,1,.11-1.9,2.28,2.28,0,0,1,2-1.79,7.57,7.57,0,0,1,2.34.25,5.07,5.07,0,0,1,1.64,1c3.51,2.78,7.06,5.52,10.48,8.41a24.72,24.72,0,0,1,3.49,3.92,2.24,2.24,0,0,1-.07,2.7,8.5,8.5,0,0,1-1.58,1.79q-6.34,5.13-12.75,10.18a6.32,6.32,0,0,1-1.26.68,1.93,1.93,0,0,1-2.06-.82,10,10,0,0,1-.46-1.85c-0.33-2.7-.6-5.4-0.91-8.1a1.61,1.61,0,0,0-1.59-1.49c-8.3-.51-16.57-1.13-24.91-0.27a98,98,0,0,1-12.46.08c-3.52-.08-7,0-10.55.13-3,.15-6.08,0-9.11-0.11a3.35,3.35,0,0,1-3.25-3,6.55,6.55,0,0,1-.11-1C498.56,251.6,498.42,246.49,498.28,241.46Z" transform="translate(-492.82 -128.42)"/></svg>