<svg id="Layer_1" data-name="Layer 1" xmlns="http://www.w3.org/2000/svg" viewBox="0 0 155.91 101.74"><title>arrow-29</title><path d="M1432.71,491c-0.07,2.08-.18,4.15-0.2,6.23,0,1.71.54,2.17,2.39,2.08,0.64,0,1.28-.06,1.91-0.15,11.93-1.64,23.91-1.51,35.9-1.09,2.08,0.07,4.16.07,6.23,0.11,10.87,0.2,21.72.87,32.55,1.79,2.23,0.19,4.47.27,6.7,0.41a2.67,2.67,0,0,1,2.54,1.84c0.57,1.49,1.18,3,1.79,4.45,1.81,4.44,3.51,8.92,5.46,13.3a14.42,14.42,0,0,1,1,8.87c-0.59,3.13-.91,6.32-1.26,9.49-0.49,4.45-.87,8.91-1.33,13.36-0.31,3-.64,6-1,9.05a15.52,15.52,0,0,1-.67,2.79c-0.79,2.46-2,3.16-4.76,2.69-10.24-1.77-20.56-2.75-30.91-3.51-3.19-.23-6.38-0.46-9.55-0.84-6.36-.77-12.76-0.72-19.15-0.92-4.47-.14-8.94-0.43-13.41-0.65-1.28-.06-2.56-0.14-3.83-0.16-1.72,0-2.41.46-2.64,2.08-0.48,3.48-.86,7-1.31,10.46q-0.48,3.8-1,7.6a5.45,5.45,0,0,1-1.48,3,2.24,2.24,0,0,1-2.62.56c-0.83-.48-1.61-1-2.41-1.56l-11.25-7.32q-11.86-7.71-23.73-15.41c-3.36-2.17-6.78-4.23-10.17-6.35-1.22-.76-2.44-1.53-3.64-2.32a13.34,13.34,0,0,1-5.25-6.66,137.44,137.44,0,0,1-4-13.8,5.68,5.68,0,0,1,2-6c0.72-.63,1.48-1.23,2.24-1.81q20.55-15.76,41.12-31.51,5.14-3.93,10.35-7.79c0.76-.57,1.65-1.23,2.62-0.84,1.23,0.49,1.31,1.69,1.26,2.85-0.09,1.92-.19,3.83-0.28,5.75h-0.12Zm81.73,26.8h0q0.47-4.53.94-9.05c0.2-1.9-.08-2.29-1.86-2.6a80.24,80.24,0,0,0-14.8-1.05c-6.57.09-13.08-.59-19.61-1.13a67.44,67.44,0,0,0-9.09-.14,102.66,102.66,0,0,1-10.53.13,120,120,0,0,0-24.84,1.19c-1.1.17-2.23,0.21-3.34,0.3-0.32,0-.64,0-1,0-1.9,0-2.77-.67-2.75-2.48,0-2.23.25-4.46,0.34-6.7,0.07-1.75.08-3.5,0.05-5.24a0.89,0.89,0,0,0-.71-0.34,24.9,24.9,0,0,0-2.8,1.79q-20.36,15.59-40.69,31.22a10.94,10.94,0,0,0-1.43,1.26,0.77,0.77,0,0,0-.09,1.22,13.71,13.71,0,0,0,1.09.93l31.93,22.91q2.92,2.09,5.86,4.16c0.62,0.43,1.2,1.06,2.09.6q0.78-4.23,1.55-8.46,0.35-1.88.72-3.76a12.24,12.24,0,0,1,.33-1.39,3.6,3.6,0,0,1,3.5-2.75c1.91-.07,3.84-0.08,5.75,0,11.18,0.39,22.35.77,33.53,1.23,7,0.29,14.06.48,21.06,1.11,5.88,0.53,11.82.38,17.65,1.56a16.5,16.5,0,0,0,2.86.2,1.73,1.73,0,0,0,1.69-1.42c0.21-1.1.41-2.2,0.53-3.31Q1513.43,527.83,1514.44,517.82Zm-29.8,28.91c-1.25,0-2,0-2.83,0a1.09,1.09,0,0,0-1.11,1.2c0.5,2.15,1,4.3,1.53,6.46a2.06,2.06,0,0,0,1.91,1.79c1.88,0.21,3.77.4,5.66,0.52,1.26,0.08,1.86-.6,1.56-1.69q-0.87-3.2-1.83-6.38a2.24,2.24,0,0,0-2-1.71C1486.39,546.81,1485.29,546.76,1484.64,546.72Zm-9.36,9.12c4.05,0.21,4.08.09,3-3.8-0.2-.76-0.28-1.56-0.51-2.32-1-3.09-.39-3.37-4.45-3.78a25.76,25.76,0,0,0-2.85-.08c-1.22,0-1.83.64-1.62,1.77,0.34,1.87.72,3.73,1.17,5.57,0.52,2.11,1.05,2.5,3.31,2.62C1474,555.87,1474.65,555.84,1475.28,555.84Zm-14.79-10.21v-0.2c-1.1.12-2.2,0.2-3.28,0.38a0.86,0.86,0,0,0-.52.65c0.13,1.1.32,2.19,0.55,3.27,1.31,6.08,1,5.07,6.87,5.46a9.48,9.48,0,0,0,1,0,1.51,1.51,0,0,0,1.65-1.8c-0.33-1.88-.72-3.75-1.16-5.6-0.4-1.66-.92-2-2.67-2.14C1462.08,545.59,1461.28,545.63,1460.49,545.63Zm-27,29c0-.31-0.07-0.62-0.14-0.93q-2.06-8.78-4.14-17.55a1.12,1.12,0,0,0-.19-0.42,0.43,0.43,0,0,0-.31-0.18,0.82,0.82,0,0,0-.38.26,1,1,0,0,0-.25.4c-0.65,2.58-.55,5.36-2.2,7.67a2.2,2.2,0,0,0-.1,1.38c0.5,3.91,1.64,7.43,5.73,9.09,0.43,0.18.81,0.49,1.23,0.7a0.57,0.57,0,0,0,.46,0A1.22,1.22,0,0,0,1433.48,574.67Zm73.47-26c-0.9,0-1.22,0-1.53,0a1.16,1.16,0,0,0-1.06,1.3c0.48,2.31,1,4.62,1.57,6.9a1.64,1.64,0,0,0,.93,1,15.4,15.4,0,0,0,6.5.84,0.85,0.85,0,0,0,.47-0.69c-0.39-1.68-.77-3.37-1.29-5-1.16-3.64-1.53-3.9-5.23-4.3A2.3,2.3,0,1,0,1507,548.62Zm-11-1.14h-1.05c-1.6,0-2.13.57-1.77,2,0.32,1.24.63,2.48,1,3.69,1.35,4,.4,3.61,5.17,4.24,2.69,0.35,3.24-.2,2.68-2.76q-0.56-2.57-1.29-5.11a2.2,2.2,0,0,0-2-1.78Zm-59.08,8.1a4.77,4.77,0,0,0-.05-0.6c-0.74-3.1-1.48-6.2-2.26-9.3A1.22,1.22,0,0,0,1434,545a3.57,3.57,0,0,0-3.22-.13c-0.93.49-.23,1.44-0.07,2.14,0.9,3.88,1.83,7.76,2.79,11.63,0.38,1.54.83,3.06,1.26,4.59a0.57,0.57,0,0,0,.35.25,0.48,0.48,0,0,0,.67-0.46c0.34-2,.68-4.09,1-6.13C1436.84,556.4,1436.87,555.92,1436.9,555.57Zm-44.1-7a15.66,15.66,0,0,0-1.17-5.58,3.16,3.16,0,0,0-1.2-1.41c-2.76-1.87-5.56-3.69-8.37-5.49a0.85,0.85,0,0,0-.82.07,1,1,0,0,0-.09.84q0.74,2.27,1.56,4.5a5.91,5.91,0,0,0,1.94,2.67,37.79,37.79,0,0,0,7.2,4.64A1.44,1.44,0,0,0,1392.8,548.57Zm56.92-3.57c-2.5-.1-3.18.66-2.77,2.55,0.38,1.7.78,3.4,1.29,5.07a2.34,2.34,0,0,0,1.12,1.42,8.37,8.37,0,0,0,4.67.42,0.92,0.92,0,0,0,.54-0.69,27.17,27.17,0,0,0-1.59-7.39,1.68,1.68,0,0,0-1-.92A17.23,17.23,0,0,0,1449.72,545Zm-9.47-.17h-0.48a1.44,1.44,0,0,0-1.52,1.88c0.34,1.72.72,3.43,1.15,5.13,0.39,1.55,1,2,2.72,2.14a7.6,7.6,0,0,0,1.9-.05,0.85,0.85,0,0,0,.75-1c-0.44-2.18-.86-4.37-1.4-6.53a2.1,2.1,0,0,0-2.16-1.55C1440.89,544.82,1440.57,544.83,1440.25,544.83Zm77-8.4a5.74,5.74,0,0,0,.31,1.65c1.25,3.11,2.57,6.19,3.91,9.26a1.58,1.58,0,0,0,.75.33,1.43,1.43,0,0,0,.17-0.45,14.39,14.39,0,0,0,0-3.8c-1.09-4.16-2.37-8.28-3.62-12.4a1.67,1.67,0,0,0-.71-0.47,1.7,1.7,0,0,0-.19.44C1517.7,532.57,1517.53,534.15,1517.27,536.42Zm-104.54,24.21c-0.31-1.27-.63-2.65-1-4a1.84,1.84,0,0,0-.43-0.83,16.94,16.94,0,0,0-4.94-3.57,0.46,0.46,0,0,0-.39.08,0.56,0.56,0,0,0-.22.4c0.24,1.24.55,2.46,0.76,3.7a4.6,4.6,0,0,0,2.31,3.4c1,0.55,1.89,1.15,2.86,1.66a1.23,1.23,0,0,0,.78-0.28A1.42,1.42,0,0,0,1412.73,560.63Zm-10.27-6.8a12.16,12.16,0,0,0-1-4.58,2.58,2.58,0,0,0-.86-1.11c-1.18-.79-2.42-1.5-3.64-2.22a0.49,0.49,0,0,0-.46,0,1.33,1.33,0,0,0-.39.77c0.13,0.94.43,1.85,0.53,2.79a5,5,0,0,0,2.84,4.12c0.56,0.29,1.09.66,1.66,0.93a1.21,1.21,0,0,0,.9.1A2,2,0,0,0,1402.46,553.83Zm118.64,4.95a4.88,4.88,0,0,0,0-1.55c-1.29-3.21-2.63-6.4-4-9.58a1.31,1.31,0,0,0-.32-0.33,0.45,0.45,0,0,0-.79.07,3,3,0,0,0-.56,1.72c1,3.31,2.12,6.57,3.22,9.85a1.32,1.32,0,0,0,.3.36,1,1,0,0,0,1.27.28A3.88,3.88,0,0,0,1521.11,558.78Zm3.31-30.13a6.53,6.53,0,0,0-.17-2.08c-1.27-3.27-2.65-6.5-4-9.74a0.39,0.39,0,0,0-.36-0.12,1.83,1.83,0,0,0-.65.6,1.43,1.43,0,0,0-.11.93q1.83,6.2,3.73,12.38a0.84,0.84,0,0,0,.74.37,1,1,0,0,0,.55-0.64A13.18,13.18,0,0,0,1524.42,528.64Zm-102.86,39.19a1.82,1.82,0,0,0,.92.11,1.12,1.12,0,0,0,.28-0.84,6.65,6.65,0,0,0-4-6.43c-0.57-.27-1.08-0.67-1.65-0.92a1.13,1.13,0,0,0-.76.17,0.53,0.53,0,0,0-.16.42c0.1,2.86,1,5.27,3.83,6.53A13.41,13.41,0,0,1,1421.55,567.83Z" transform="translate(-1373.36 -482.3)"/></svg>