<svg id="Layer_1" data-name="Layer 1" xmlns="http://www.w3.org/2000/svg" viewBox="0 0 122.86 120.91"><title>arrow-7</title><path d="M1494.76,68.15a1.52,1.52,0,0,0-.28-0.37,0.48,0.48,0,0,0-.39-0.09,18.69,18.69,0,0,0-2.13,1.06c-3.66,2.3-7.28,4.64-10.94,6.93a23.62,23.62,0,0,1-3,1.51,2,2,0,0,1-2.08-.84,2.07,2.07,0,0,1,0-2.26,14.14,14.14,0,0,1,2.15-1.86c3.2-2.11,6.44-4.18,9.67-6.24q3.84-2.45,7.7-4.87a18.59,18.59,0,0,1,2.1-1.13,2.19,2.19,0,0,1,2.55.76,9.09,9.09,0,0,1,.82,1.71q3.68,11.15,7.32,22.32a8.57,8.57,0,0,1,.31,1.87,2,2,0,0,1-1.35,1.78A2.37,2.37,0,0,1,1505,88a11.57,11.57,0,0,1-1.09-2.12c-1-2.87-1.91-5.76-2.86-8.65-0.45-1.37-.9-2.73-1.39-4.08a0.94,0.94,0,0,0-1-.84,2,2,0,0,0-1,.94,17.11,17.11,0,0,0-.94,2.2l-15.38,41.33c-0.39,1-.83,2.08-1.21,3.13a4.3,4.3,0,0,1-4,2.92,24.17,24.17,0,0,1-6.21-.25c-2.21-.34-4.43-0.67-6.65-0.86a14.4,14.4,0,0,0-3.81.14,8.51,8.51,0,0,0-6.26,4.74,12.91,12.91,0,0,0-1,2.7c-3.07,12.24-6.75,24.33-9.09,36.75a25.26,25.26,0,0,1-1,3.71,39.18,39.18,0,0,0-2,7.4,8.94,8.94,0,0,1-1,2.67c-0.6,1.19-3,1.24-3.72.09a6.51,6.51,0,0,1-1-2.16A51.67,51.67,0,0,0,1432,169a18.36,18.36,0,0,1-.63-2.31,150.49,150.49,0,0,0-4.44-15.16c-1.65-4.83-2.82-9.82-4.12-14.77-2.19-8.35-4.76-16.58-7.43-24.79-0.2-.6-0.44-1.19-0.69-1.77a0.84,0.84,0,0,0-1.22-.16c-1.85,2-3.84,3.86-5.51,6-6,7.67-12.45,15-17.81,23.2a7.41,7.41,0,0,1-1.28,1.4,2.08,2.08,0,0,1-3.1-1.08,2.33,2.33,0,0,1,0-1.39,23.71,23.71,0,0,1,1.87-3.33c1.64-2.36,3.31-4.71,5.08-7,3.33-4.29,6.69-8.57,10.14-12.77s6.8-8.06,10.24-12.06c1.8-2.09,3.76-1.72,4.62.95q2.34,7.3,4.48,14.67c2.84,9.82,5.6,19.67,8.41,29.49,0.48,1.69,1.16,3.32,1.65,5,1.11,3.84,2.16,7.69,3.24,11.53q0.52,1.84,1.11,3.65a0.48,0.48,0,0,0,.73.33,0.74,0.74,0,0,0,.37-0.26c0.3-.9.63-1.8,0.84-2.72,1.44-6.06,2.79-12.14,4.3-18.19,1.66-6.67,3.36-13.32,5.21-19.94,2.07-7.42,8.49-11.49,16.1-10.4,2.85,0.41,5.68.88,8.52,1.31,0.31,0,.64.05,1,0.07a2.52,2.52,0,0,0,2.74-1.5c0.39-.87.73-1.77,1.07-2.67q6.58-17.5,13.16-35c1.34-3.59,2.33-7.31,4.09-10.74A1.28,1.28,0,0,0,1494.76,68.15Z" transform="translate(-1385.7 -59.83)"/></svg>