<svg id="Layer_1" data-name="Layer 1" xmlns="http://www.w3.org/2000/svg" viewBox="0 0 116.6 26.6"><title>arrow-40</title><path d="M315.21,965H286c-1,0-1.92,0-2.87.1-1.69.1-2.14,0.57-2.23,2.42s-0.06,3.52-.12,5.27a18.92,18.92,0,0,1-.22,1.88,1.1,1.1,0,0,1-1.1.67,7.6,7.6,0,0,1-1.31-.54q-10.16-6.34-20.3-12.72a8.43,8.43,0,0,1-.75-0.6,1.17,1.17,0,0,1,0-1.66,10.53,10.53,0,0,1,1.21-.74c4.33-2,8.68-4,13-6.1,2.45-1.17,4.85-2.43,7.3-3.62,1.27-.62,2.15-0.05,2.19,1.43,0.09,2.87.12,5.75,0.21,8.63a1.55,1.55,0,0,0,1.51,1.54c0.32,0,.64.07,1,0.07,4,0,8,0,12,0h36c5.75,0,11.51,0,17.26,0,1.45,0,2-.59,2-2.06,0-.64,0-1.28,0-1.92,0-2.08,0-4.15,0-6.23a10.35,10.35,0,0,1,.22-1.4,1.1,1.1,0,0,1,1.12-.63,4.44,4.44,0,0,1,.88.34q9.54,6.41,19.06,12.86a6.15,6.15,0,0,1,1.34,1.31,0.87,0.87,0,0,1-.06.84,5.87,5.87,0,0,1-1.45,1.2c-3.93,2.13-7.89,4.22-11.84,6.31q-2.11,1.12-4.26,2.18c-0.85.42-1.72,0.84-2.61,1.18-1.35.51-2.3,0-2.38-1.37-0.07-1.11,0-2.23-.06-3.35,0-1.28-.07-2.55-0.16-3.82a1.36,1.36,0,0,0-1.2-1.29,10.45,10.45,0,0,0-1.9-.2q-6.23,0-12.46,0H315.21V965Z" transform="translate(-256.71 -948.74)"/></svg>