<svg id="Layer_1" data-name="Layer 1" xmlns="http://www.w3.org/2000/svg" viewBox="0 0 156.85 145.03"><title>arrow-35</title><path d="M737.6,865.9c2.4,0,4.48,0,6.56,0a48,48,0,0,0,14.22-1.73,28.72,28.72,0,0,1,6.16-.91,71.09,71.09,0,0,0,11.81-1.92c1.6-.39,2.64,0,2.75,1s-0.45,1.48-1.8,1.86a51.31,51.31,0,0,1-9.86,1.92,56.81,56.81,0,0,0-10.87,1.75A34.46,34.46,0,0,1,748,869c-5.91.12-11.83,0.33-17.74,0.58-4.18.17-8.28-.57-12.42-1-0.32,0-.63-0.17-0.94-0.18-7-.3-13.32-2.95-19.64-5.77a34.56,34.56,0,0,1-19-19.92,48,48,0,0,1-3.23-15.9,42.92,42.92,0,0,1,2.28-14.62c1.89-5.78,6.08-9.74,11.26-12.56a54.39,54.39,0,0,1,19.15-5.87c8.64-1.13,17.23-.51,25.81.6,2.69,0.35,5.37.82,8.06,1.18a99.55,99.55,0,0,1,20.82,5.5,37.29,37.29,0,0,0,10.75,2.21c2.39,0.13,4.78.38,7.16,0.69a30.23,30.23,0,0,0,7.18.12c3.81-.42,7.61-1,11.42-1.41a17.74,17.74,0,0,0,6.4-1.88c2.7-1.4,5.41-2.77,8.1-4.17A28.78,28.78,0,0,0,819,792.8a26.47,26.47,0,0,0,9-23.63,24.35,24.35,0,0,0-7.72-14.54,38.82,38.82,0,0,0-15.57-9.17,164.57,164.57,0,0,0-19-4.81,74.4,74.4,0,0,0-13.83-1.31c-4.48,0-9,.05-13.43.15-1.92,0-3.82.29-5.74,0.38-3.83.18-7.67,0.31-11.5,0.47a1.85,1.85,0,0,0-2.08,2.07c-0.09,1.76-.1,3.52-0.12,5.27,0,1,0,1.92,0,2.88a2.13,2.13,0,0,1-3,2c-1.91-.81-3.79-1.68-5.67-2.57q-8.24-3.88-16.47-7.79a36.55,36.55,0,0,1-3.78-2.06,1.89,1.89,0,0,1,.09-3.21,10.46,10.46,0,0,1,1.24-.73c2.3-1.12,4.59-2.25,6.9-3.34,5.21-2.45,10.43-4.86,15.63-7.32,3.95-1.87,5-1.17,5.12,3.33,0,2.24,0,4.47.05,6.71a1.57,1.57,0,0,0,1.53,1.53,27.34,27.34,0,0,0,2.88.1c2.88-.11,5.75-0.22,8.62-0.43,10.54-.78,21.07-1.25,31.59.18a144.2,144.2,0,0,1,15.46,3.32c2,0.5,4,1.14,6,1.72a41.9,41.9,0,0,1,17,9.55c6.82,6.32,10.63,14.13,9.66,23.52-1,10.05-5.67,18.28-14.57,23.58-3.84,2.29-7.9,4.2-11.92,6.15a20.38,20.38,0,0,1-7.44,1.7c-2.23.18-4.45,0.45-6.66,0.75a56,56,0,0,1-13.88,0c-2.06-.23-4.13-0.51-6.2-0.61a28.34,28.34,0,0,1-8.42-1.71c-2.4-.88-4.85-1.62-7.27-2.44-7.62-2.57-15.5-3.75-23.44-4.76a117,117,0,0,0-19.63-.8A53.68,53.68,0,0,0,692,801.85a24.13,24.13,0,0,0-6,3.91,19.71,19.71,0,0,0-6.09,10.08c-2.94,11.15-1.06,21.55,4.46,31.44a28.25,28.25,0,0,0,12.59,11.44c2.86,1.42,5.81,2.66,8.74,4a29.14,29.14,0,0,0,7.39,2C721.31,865.91,729.57,866.81,737.6,865.9Zm-2.06-122.28h0c0-.94,0-1.89,0-2.83a0.5,0.5,0,0,0-.55-0.61,1.36,1.36,0,0,0-.83.3c-1.22,1.44-2.42,2.9-3.58,4.39a0.88,0.88,0,0,0,.29,1.23,8.43,8.43,0,0,0,1.59,1c2.17,1.07,2.94.67,3.06-1.59C735.56,744.89,735.53,744.26,735.53,743.63Zm-4.65-8.41a7.48,7.48,0,0,0-.28,1.11c0,0.61,0,1.23,0,1.84,1,0.19,1.3-.62,1.76-1.15a28.1,28.1,0,0,0,2.35-3,5.51,5.51,0,0,0,.82-2.16,2.88,2.88,0,0,0-.25-2.28c-0.3-.4-1.75-0.07-2.57.6a3.21,3.21,0,0,0-1.25,1.94C731.22,733.24,731,734.33,730.88,735.22Zm-4.57,4.44a15.74,15.74,0,0,0,.37-1.83,1.07,1.07,0,0,0-.47-0.6,0.47,0.47,0,0,0-.42.11c-1.06,1.14-2.12,2.28-3.14,3.45a1.17,1.17,0,0,0,.54,1.88c1.58,0.75,2.46.4,2.8-1.16C726.13,740.89,726.21,740.27,726.32,739.66Zm-9.54-.09a1.58,1.58,0,0,0,1.42-1.85,0.49,0.49,0,0,0-.28-0.31,2.5,2.5,0,0,0-2.28,1.11,0.88,0.88,0,0,0,.34.65A3.43,3.43,0,0,0,716.77,739.56Z" transform="translate(-675.08 -724.57)"/></svg>